<?xml version="1.0" encoding="utf-8"?>
<!-- Generator: Adobe Illustrator 22.0.1, SVG Export Plug-In . SVG Version: 6.00 Build 0)  -->
<svg version="1.1" id="fd59ce54-f850-4dfc-bc34-dd7d379d600e"
	 xmlns="http://www.w3.org/2000/svg" xmlns:xlink="http://www.w3.org/1999/xlink" x="0px" y="0px" viewBox="0 0 1074.4 460"
	 style="enable-background:new 0 0 1074.4 460;" xml:space="preserve">
<style type="text/css">
	.st0{fill:#F2F2F2;}
	.st1{fill:#2F2E41;}
	.st2{fill:#595186;}
	.st3{fill:none;stroke:#3F3D56;stroke-miterlimit:10;}
	.st4{fill:#3F3D56;}
	.st5{opacity:0.1;enable-background:new    ;}
	.st6{fill:#57B894;}
	.st7{fill:#FFFFFF;}
	.st8{opacity:0.3;fill:#595186;enable-background:new    ;}
</style>
<title>page not found</title>
<ellipse class="st0" cx="540.6" cy="425.2" rx="527.5" ry="34.9"/>
<path class="st1" d="M520.4,42.9c-85.9,0-147.7,55.1-147.7,183.8c0,145.8,61.7,184.4,147.7,184.4s151.3-42.3,151.3-184.4
	C671.8,74.8,606.4,42.9,520.4,42.9z M521,362.7c-59.5,0-90.6-34.9-90.6-135.9c0-89.1,32.4-136.1,91.9-136.1s91.9,30.9,91.9,136.1
	C614.2,325.2,580.5,362.7,521,362.7z"/>
<path class="st2" d="M321.3,309.4h-35.5V204.8c0-11.6-9.4-21-21-21h-8.3c-11.6,0-21,9.4-21,21l0,0v104.6H135.3c-6.6,0-12-5.4-12-12
	c0-1.9,0.5-3.9,1.4-5.6L230.8,91.1c5.4-10.2,1.5-22.9-8.7-28.3c-0.3-0.1-0.6-0.3-0.8-0.4l-6.3-3c-10.1-4.8-22.2-0.8-27.4,9.1
	l-129.4,242c-2.2,4.1-3.4,8.7-3.4,13.4l0,0c0,15.7,12.7,28.4,28.4,28.4c0,0,0,0,0,0h152.3v66.2c0,13.9,11.2,25.1,25.1,25.1l0,0h0
	c13.9,0,25.1-11.2,25.1-25.1l0,0v-66.2h35.5c11.8,0,21.4-9.6,21.4-21.4l0,0C342.8,319,333.2,309.4,321.3,309.4L321.3,309.4z"/>
<path class="st2" d="M979.3,309.4h-35.5V204.8c0-11.6-9.4-21-21-21h-8.3c-11.6,0-21,9.4-21,21l0,0v104.6H793.3c-6.6,0-12-5.4-12-12
	c0-1.9,0.5-3.9,1.4-5.6L888.8,91.1c5.4-10.2,1.5-22.9-8.7-28.3c-0.3-0.1-0.6-0.3-0.8-0.4l-6.3-3c-10.1-4.8-22.2-0.8-27.4,9.1
	l-129.4,242c-2.2,4.1-3.4,8.7-3.4,13.4l0,0c0,15.7,12.7,28.4,28.4,28.4l0,0h152.3v66.2c0,13.9,11.2,25.1,25.1,25.1c0,0,0,0,0,0l0,0
	c13.9,0,25.1-11.2,25.1-25.1c0,0,0,0,0,0v-66.2h35.5c11.8,0,21.4-9.6,21.4-21.4l0,0l0,0C1000.8,319,991.2,309.4,979.3,309.4
	L979.3,309.4z"/>
<path class="st3" d="M331.1,297.1h-35.5V192.5c0-11.6-9.4-21-21-21l0,0h-8.3c-11.6,0-21,9.4-21,21v0v104.6H145.1
	c-6.6,0-12-5.4-12-12c0-1.9,0.5-3.9,1.4-5.6L240.6,78.8c5.4-10.2,1.5-22.9-8.7-28.3c-0.3-0.1-0.6-0.3-0.8-0.4l-6.3-3
	c-10.1-4.8-22.2-0.8-27.4,9.1L68,298.2c-2.2,4.1-3.4,8.7-3.4,13.4l0,0c0,15.7,12.7,28.4,28.4,28.4h152.3v66.2
	c0,13.9,11.2,25.1,25.1,25.1l0,0h0c13.9,0,25.1-11.2,25.1-25.1l0,0V340h35.5c11.8,0,21.4-9.6,21.4-21.4l0,0
	C352.6,306.7,343,297.1,331.1,297.1z"/>
<path class="st3" d="M997.7,297.1h-35.5V192.5c0-11.6-9.4-21-21-21l0,0h-8.3c-11.6,0-21,9.4-21,21v0v104.6H811.7
	c-6.6,0-12-5.4-12-12c0-1.9,0.5-3.9,1.4-5.6L907.2,78.8c5.4-10.2,1.5-22.9-8.7-28.3c-0.3-0.1-0.6-0.3-0.8-0.4l-6.3-3
	c-10.1-4.8-22.2-0.8-27.4,9.1l-129.4,242c-2.2,4.1-3.4,8.7-3.4,13.4l0,0c0,15.7,12.7,28.4,28.4,28.4l0,0h152.3v66.2
	c0,13.9,11.2,25.1,25.1,25.1c0,0,0,0,0,0l0,0c13.9,0,25.1-11.2,25.1-25.1c0,0,0,0,0,0V340h35.5c11.8,0,21.4-9.6,21.4-21.4l0,0l0,0
	C1019.1,306.7,1009.5,297.1,997.7,297.1C997.7,297.1,997.7,297.1,997.7,297.1z"/>
<path class="st3" d="M540,31.9c-85.9,0-147.7,55.1-147.7,183.8c0,145.8,61.7,184.4,147.7,184.4s151.3-42.3,151.3-184.4
	C691.4,63.7,626,31.9,540,31.9z M540.6,351.7c-59.5,0-90.6-34.9-90.6-135.9c0-89.1,32.4-136.1,91.9-136.1s91.9,30.9,91.9,136.1
	C633.8,314.2,600.1,351.7,540.6,351.7L540.6,351.7z"/>
<path class="st4" d="M576.2,60.1c-0.8,3.2-4.1,5.8-7.8,7.5c-7.8,3.8-17.4,4.9-26.8,5.3c-2.4,0.1-4.8,0.1-7.1-0.1
	c-4.6-0.4-8.9-2.4-12.3-5.6c-0.8-0.5-1-1.5-0.5-2.3c0.1-0.2,0.3-0.4,0.5-0.5c5-5.5,13.3-8.8,21.6-11.2c6.3-1.8,17.4-6.6,24.3-5.9
	C574.9,47.7,577.2,56,576.2,60.1z"/>
<path class="st5" d="M576.2,60.1c-0.8,3.2-4.1,5.8-7.8,7.5c-7.8,3.8-17.4,4.9-26.8,5.3c-2.4,0.1-4.8,0.1-7.1-0.1
	c-4.6-0.4-8.9-2.4-12.3-5.6c-0.8-0.5-1-1.5-0.5-2.3c0.1-0.2,0.3-0.4,0.5-0.5c5-5.5,13.3-8.8,21.6-11.2c6.3-1.8,17.4-6.6,24.3-5.9
	C574.9,47.7,577.2,56,576.2,60.1z"/>
<path class="st6" d="M1006.9,295.4c10.8,3.9,22.7-1.6,26.7-12.4c3.9-10.8-1.6-22.7-12.4-26.7c-3.7-1.3-7.6-1.6-11.5-0.8l0.5,10.7
	l-5.1-9.2c-5,2.3-8.8,6.6-10.7,11.7c-0.7,1.8-1.1,3.7-1.2,5.6C992.5,283.7,998.1,292.3,1006.9,295.4z"/>
<path class="st3" d="M1031.9,419.7c-1.8-9.1,6-17.2,13.6-22.4s16.6-10.4,19.2-19.3c3.8-12.8-7.4-24.5-16.1-34.6
	c-6.5-7.5-12-15.7-16.5-24.6c-1.8-3.5-3.5-7.2-4-11.2c-0.7-5.7,1.1-11.3,3-16.7c6.1-18,12.7-35.9,19.6-53.7"/>
<path class="st3" d="M1007.7,292.7c10.8,3.9,22.7-1.6,26.7-12.4c3.9-10.8-1.6-22.7-12.4-26.7c-3.7-1.3-7.6-1.6-11.5-0.8l0.5,10.7
	l-5.1-9.2c-5,2.3-8.8,6.6-10.7,11.7c-0.7,1.8-1.1,3.7-1.2,5.6C993.4,280.9,999,289.5,1007.7,292.7z"/>
<path class="st6" d="M1029.4,233.5c2.4-6.7,8.1-11.6,15-13.2l1.7,10.2l3.2-10.7c11.5,0.2,20.7,9.6,20.5,21.1
	c-0.2,11.5-9.6,20.7-21.1,20.5c-11.5-0.2-20.7-9.6-20.5-21.1C1028.2,237.9,1028.6,235.7,1029.4,233.5z"/>
<path class="st3" d="M1030.5,229.8c2.4-6.7,8.1-11.6,15-13.2l1.7,10.2l3.2-10.7c11.5,0.2,20.7,9.6,20.5,21.1
	c-0.2,11.5-9.6,20.7-21.1,20.5c-11.5-0.2-20.7-9.6-20.5-21.1C1029.3,234.3,1029.8,232,1030.5,229.8z"/>
<path class="st6" d="M1045,343.5c10.8,3.9,22.7-1.7,26.7-12.5c3.3-9.1-0.1-19.3-8.2-24.6l-2.4,8.2l-1.7-10.3c0,0,0,0-0.1,0
	c-10.8-3.9-22.7,1.7-26.7,12.5C1028.6,327.6,1034.2,339.6,1045,343.5C1045,343.5,1045,343.5,1045,343.5L1045,343.5z"/>
<path class="st3" d="M1046,339.8c10.8,3.9,22.7-1.7,26.7-12.5c3.3-9.1-0.1-19.3-8.2-24.6l-2.4,8.2l-1.7-10.3c0,0,0,0-0.1,0
	c-10.8-3.9-22.7,1.7-26.7,12.5C1029.6,323.9,1035.2,335.8,1046,339.8C1046,339.8,1046,339.8,1046,339.8L1046,339.8z"/>
<path class="st6" d="M1023.3,378.1c2,11.3,12.8,18.9,24.1,16.9s18.9-12.8,16.9-24.1c-2-11.3-12.8-18.9-24.1-16.9
	c-5.1,0.9-9.7,3.7-12.9,7.8l9.3,14l-12.7-7.4C1023,371.5,1022.7,374.8,1023.3,378.1z"/>
<path class="st3" d="M1024.2,375.3c2,11.3,12.8,18.9,24.1,16.9s18.9-12.8,16.9-24.1c-2-11.3-12.8-18.9-24.1-16.9
	c-5.1,0.9-9.7,3.7-12.9,7.8l9.3,14l-12.7-7.4C1023.8,368.7,1023.6,372,1024.2,375.3z"/>
<path class="st6" d="M9,346.1c7.1,2.6,14.9-1.1,17.5-8.2c2.6-7.1-1.1-14.9-8.2-17.5c-2.4-0.9-5-1.1-7.5-0.5l0.3,7l-3.3-6
	c-3.3,1.5-5.8,4.3-7,7.7c-0.4,1.2-0.7,2.4-0.8,3.7C-0.4,338.4,3.3,344,9,346.1z"/>
<path class="st3" d="M25.5,427.8c-1.2-6,3.9-11.3,8.9-14.7s10.9-6.8,12.6-12.7c2.5-8.4-4.9-16.1-10.6-22.8
	c-4.2-4.9-7.9-10.3-10.9-16.1c-1.3-2.3-2.2-4.8-2.6-7.3c-0.5-3.7,0.7-7.4,2-11c4-11.8,8.3-23.6,12.9-35.2"/>
<path class="st3" d="M9.6,344.3c7.1,2.6,14.9-1.1,17.5-8.2c2.6-7.1-1.1-14.9-8.2-17.5c-2.4-0.9-5-1.1-7.5-0.5l0.3,7l-3.3-6
	c-3.3,1.5-5.8,4.3-7,7.7c-0.4,1.2-0.7,2.4-0.8,3.7C0.2,336.6,3.8,342.2,9.6,344.3z"/>
<path class="st6" d="M23.8,305.4c1.6-4.4,5.3-7.6,9.8-8.7l1.1,6.7l2.1-7c7.6,0.1,13.6,6.3,13.5,13.9s-6.3,13.6-13.9,13.5
	s-13.6-6.3-13.5-13.9C23,308.4,23.3,306.9,23.8,305.4z"/>
<path class="st3" d="M24.6,303c1.6-4.4,5.3-7.6,9.8-8.7l1.1,6.7l2.1-7c7.6,0.1,13.6,6.3,13.5,13.9s-6.3,13.6-13.9,13.5
	s-13.6-6.3-13.5-13.9C23.8,305.9,24,304.4,24.6,303z"/>
<path class="st6" d="M34.1,377.7c7.1,2.6,14.9-1.1,17.5-8.2c2.2-6-0.1-12.7-5.4-16.1l-1.6,5.4l-1.1-6.8c0,0,0,0,0,0
	c-7.1-2.6-14.9,1.1-17.5,8.2C23.3,367.3,26.9,375.1,34.1,377.7C34,377.7,34,377.7,34.1,377.7z"/>
<path class="st3" d="M34.7,375.3c7.1,2.6,14.9-1.1,17.5-8.2c2.2-6-0.1-12.7-5.4-16.1l-1.6,5.4l-1.1-6.8c0,0,0,0,0,0
	c-7.1-2.6-14.9,1.1-17.5,8.2C23.9,364.8,27.6,372.7,34.7,375.3L34.7,375.3L34.7,375.3z"/>
<path class="st6" d="M19.8,400.4c1.3,7.4,8.4,12.4,15.8,11.1c7.4-1.3,12.4-8.4,11.1-15.8c-1.3-7.4-8.4-12.4-15.8-11.1
	c-3.4,0.6-6.4,2.4-8.5,5.1l6.1,9.2l-8.3-4.9C19.6,396.1,19.4,398.3,19.8,400.4z"/>
<path class="st3" d="M20.4,398.6c1.3,7.4,8.4,12.4,15.8,11.1c7.4-1.3,12.4-8.4,11.1-15.8c-1.3-7.4-8.4-12.4-15.8-11.1
	c-3.4,0.6-6.4,2.4-8.5,5.1l6.1,9.2l-8.3-4.9C20.1,394.3,20,396.5,20.4,398.6z"/>
<ellipse class="st1" cx="480.9" cy="195" rx="17" ry="22"/>
<ellipse class="st1" cx="573.4" cy="195.5" rx="17" ry="22"/>
<path class="st1" d="M560.4,260.5c0,9.9-13.9,18-31,18s-31-8.1-31-18c0-8.6,10.4-15.8,24.3-17.6c2.2-0.3,4.4-0.4,6.7-0.4
	c3.7,0,7.5,0.4,11.1,1.2C552.2,246.3,560.4,252.8,560.4,260.5z"/>
<ellipse class="st3" cx="484.9" cy="190" rx="17" ry="22"/>
<ellipse class="st3" cx="577.4" cy="190.5" rx="17" ry="22"/>
<ellipse class="st3" cx="533.4" cy="255.5" rx="31" ry="18"/>
<path class="st7" d="M540.9,245.2c0,1.3-0.5,2.5-1.3,3.4c-0.8,0.9-2,1.4-3.2,1.4h-10c-2.6-0.1-4.6-2.2-4.5-4.8c0-1,0.3-1.9,0.8-2.7
	c2.2-0.3,4.4-0.5,6.7-0.5c3.7,0,7.5,0.4,11.1,1.3C540.8,243.9,540.9,244.5,540.9,245.2z"/>
<circle class="st7" cx="484.9" cy="184" r="5"/>
<circle class="st7" cx="577.9" cy="184" r="5"/>
<circle class="st8" cx="582.9" cy="231" r="5"/>
<circle class="st8" cx="460.9" cy="231" r="5"/>
</svg>
