<?xml version="1.0" encoding="utf-8"?>
<!-- Generator: Adobe Illustrator 22.0.1, SVG Export Plug-In . SVG Version: 6.00 Build 0)  -->
<svg version="1.1" id="Layer_1" xmlns="http://www.w3.org/2000/svg" xmlns:xlink="http://www.w3.org/1999/xlink" x="0px" y="0px"
	 viewBox="0 0 512 512" style="enable-background:new 0 0 512 512;" xml:space="preserve">
<style type="text/css">
	.st0{fill:#6B7C93;}
</style>
<path class="st0" d="M426.7,0H85.3C38.3,0.1,0.1,38.3,0,85.3v341.3C0,473.6,38.4,512,85.3,512h341.3c46.9,0,85.3-38.4,85.3-85.3
	V85.3C512,38.4,473.6,0,426.7,0z M380,359.6c-4.2,10.3-11,19.4-19.7,26.3c-9,7.4-20.3,13.2-34.3,17.6c-14,4.3-30.5,6.5-49.8,6.5H139
	V111.3h145.1c26.8,0,48.3,6.1,64.4,18.4c16.2,12.3,24.3,30.8,24.3,55.7c0,15-3.7,27.9-11,38.6c-7.4,10.6-17.9,18.9-31.6,24.6v1
	c18.2,3.8,32.3,12.5,41.6,25.9s14.1,30.4,14.1,50.9c0,11.5-2.2,22.4-6.4,32.6L380,359.6z M320.8,286c-8.7-8-21.1-11.9-36.9-11.9
	h-92.2v93.2h92.5c15.8,0,28.2-4.1,36.9-12.4c8.8-8.2,13.2-19.9,13.2-35c-0.1-14.7-4.5-26.1-13.2-33.9H320.8z M308,225.7
	c8.4-7.1,12.6-17.4,12.6-30.8c0-15-3.7-25.7-11.3-31.8c-7.5-6.1-18.4-9.2-32.6-9.2h-85.3v82.4h85.3
	C289.2,236.4,299.7,232.7,308,225.7L308,225.7z"/>
</svg>
