<?xml version="1.0" encoding="utf-8"?>
<!-- Generator: Adobe Illustrator 22.0.1, SVG Export Plug-In . SVG Version: 6.00 Build 0)  -->
<svg version="1.1" id="Layer_1" xmlns="http://www.w3.org/2000/svg" xmlns:xlink="http://www.w3.org/1999/xlink" x="0px" y="0px"
	 viewBox="0 0 500 150" style="enable-background:new 0 0 500 150;" xml:space="preserve">
<style type="text/css">
	.st0{fill:#6B7C93;}
</style>
<g>
	<path class="st0" d="M0,24.8c0.4-0.1,0.7-0.2,1.1-0.2c13.8,0.1,27.7,0,41.5,0.2c4.7,0.1,9.1,1.7,12.9,4.5
		c8.8,6.3,9.7,24.3-2.5,30.7c-0.6,0.3-1.2,0.7-2.1,1.1c2.3,1.1,4.6,1.8,6.5,3c7.3,4.9,10.3,15.7,7,25.2c-2.9,8.3-9.6,11.8-17.5,13.6
		c-2.6,0.6-5.3,0.9-8,0.9c-12.9,0.1-25.9,0-39,0C0,77.7,0,51.3,0,24.8L0,24.8z M13.8,92.4c9.6,0,19,0.2,28.3-0.1
		c5.9-0.2,10.1-6.5,9.8-12.6c-0.3-6-4.1-11.2-9.8-11.4c-9.2-0.4-18.5-0.3-27.8-0.4c-0.1,0-0.3,0.2-0.5,0.3L13.8,92.4L13.8,92.4z
		 M13.9,57.6c8.6,0,16.9,0.3,25.2-0.1c6.1-0.3,9.5-5.2,9.3-11.8c-0.2-5.9-3.7-9.4-9.9-9.6C30.5,35.9,22.7,36,14.8,36
		c-0.3,0-0.6,0.2-1,0.3V57.6z M442.9,46.7h11.5v6.2c1.3-1,2.8-2.1,4.3-3.3c8.8-7.6,29.8-6.7,37,8.6c6.2,13.2,5.9,26.4-2.4,38.6
		c-4.6,6.8-11.8,9.2-19.9,8.8c-7-0.4-13.2-2.6-18.1-9.1v28.8h-12.4C442.9,99.1,442.9,73,442.9,46.7L442.9,46.7z M454.6,75.7
		c0.5,2.9,0.8,5.8,1.6,8.6c1.8,6.2,7.3,10.9,12.9,11.3c7.6,0.5,13-2.3,15.7-9c3.5-8.5,3.4-17.1-1.7-25.1c-6-9.4-20.4-8.6-25.4,1.2
		C455.6,66.8,454.6,71.1,454.6,75.7L454.6,75.7z M434.7,95.8c0,2.4,0.1,4.8-0.1,7.1c0,0.6-0.8,1.6-1.3,1.6
		c-3.6,0.3-7.3,0.8-10.8,0.5c-3.1-0.3-4.9-3-5.8-6.1c-7.4,6.1-16,7.4-25,6.2c-7.6-0.9-13.9-7.2-14.4-14.1c-0.7-9.5,2.9-15.7,11.5-18
		c6-1.6,12.3-2.2,18.4-3.3c1.5-0.3,3-0.5,4.5-0.9c2.8-0.8,4.8-2.3,5-5.5c0.2-3.3-1.1-5.8-4.2-7.1c-5.3-2.1-10.6-2.1-15.8,0.4
		c-2.4,1.1-3.8,3.3-5,7.1h-12.2c0-4.6,1.6-8.5,4.7-11.8c4.1-4.3,9.4-6,15.1-6.6c6-0.6,11.9-0.6,17.7,1.4c7.8,2.6,11.6,7.8,11.5,16
		c0,8.8,0,17.5,0,26.3C428.5,95.3,428.5,95.3,434.7,95.8L434.7,95.8z M415.9,76.1c-3.8,0.7-7.3,1.2-10.8,1.9
		c-3.6,0.8-7.4,1.4-10.8,2.7c-3.4,1.2-4.6,4.4-4.4,7.8c0.1,3.3,2.3,5.1,5.2,6.1c4.9,1.7,9.9,1.5,14.6-0.7c3.4-1.6,5.9-4.2,6.2-8.1
		C416.1,82.6,415.9,79.2,415.9,76.1z M102.9,45.1c19.1-0.2,30.3,13.8,29.1,32.8c-0.4,6.6-2.2,12.8-6.5,18c-4.7,5.6-10.7,8.6-18,9.4
		c-6,0.7-11.9,0.3-17.5-2.3c-8.3-3.8-13.1-10.4-15.1-19.2c-1.4-6-1.3-12,0.2-18C78.5,52.7,88.6,45.1,102.9,45.1L102.9,45.1z
		 M86.3,75.5c0.5,2.8,0.8,5.7,1.5,8.4c2,6.9,7.5,11.5,13.7,11.8c7.7,0.4,13.1-2.9,16-10c2.8-7,2.8-14.2-0.3-21.1
		c-4.5-10.3-16.9-12.9-24.9-5.3C87.8,63.6,86.6,69.3,86.3,75.5L86.3,75.5z M169.1,45.1c17.2,0,28.9,11.6,29.1,28.8
		c0.1,7.3-1.1,14.2-5.4,20.3c-6.1,8.7-15,11.8-25.1,11.3c-3.7-0.2-7.6-1-11.1-2.4c-8.2-3.2-13.1-9.6-15.3-18
		c-1.9-7.5-1.7-14.9,0.7-22.1C145.8,51.8,156,45.1,169.1,45.1L169.1,45.1z M185.6,73.9c-0.3-1.5-0.6-4.5-1.4-7.3
		c-2.1-7.1-7.6-11.4-14.6-11.7c-6.6-0.3-12.5,3.6-15,10.4c-3,8-2.8,16,1.7,23.4c4.7,7.8,15.4,9.5,22.4,3.7
		C184.1,88,185.4,81.9,185.6,73.9L185.6,73.9z M292,62.7c-3.9,0-7.8,0-11.6,0c-0.5,0-1.2-0.5-1.4-0.9c-2.1-6-7.2-6.7-12.4-6.7
		c-2.2,0-4.5,0.5-6.5,1.4c-4.3,1.8-4.8,6.7-0.7,9c2.8,1.6,6.1,2.5,9.2,3.4c4.5,1.3,9,2,13.5,3.3c11.3,3.4,15.7,14.8,9.4,24.1
		c-3,4.5-7.6,6.9-12.8,8.2c-7.7,1.9-15.4,2-22.9-0.7c-8-2.9-12.3-8.7-12.9-17.6h12.3c3.5,9.1,13.4,12.7,22.6,8
		c2.1-1.1,3.6-2.6,3.7-5.1c0.2-2.7-0.9-5-3.3-5.9c-4.3-1.6-8.8-2.7-13.2-4c-3.7-1.1-7.4-1.9-11-3.3c-6.8-2.7-9.8-7.4-9.7-14.4
		c0-6.2,3.6-11.5,10.1-13.8c8.8-3.2,17.8-3.6,26.7-0.1c6,2.3,9.6,7,11,13.2C292.1,61.2,292,61.8,292,62.7z M225.3,46.6h11.4v9.3
		h-11.1c-0.1,1.1-0.2,1.9-0.2,2.7c0,9.4,0,18.8,0,28.1c0,1.2,0.1,2.5,0.2,3.7c0.2,2.5,1.6,4,4.1,4.1c2.3,0.1,4.6,0,7,0v9.3
		c-5.2,1.3-10.5,1.2-15.6,0.1c-5.9-1.3-8.4-5.4-8.4-13.2c-0.1-10.5,0-21.1,0-31.6V56h-9.4v-9.4h9.3V29.4h12.7
		C225.3,35,225.3,40.6,225.3,46.6L225.3,46.6z M331.6,104.2c-4.9,0-9.5,0.2-14.1,0c-4.5-0.2-7.9-3.2-8.9-7.6
		c-0.6-2.5-0.9-5.1-0.9-7.7c-0.1-9.9,0-19.8,0-29.8V56h-9.4v-9.3h9.3V29.4h12.8v17h11.3v9.3h-10.9c-0.1,0.8-0.3,1.4-0.3,2
		c0,10.1,0,20.2,0,30.3c0,5.3,1.4,6.6,6.7,6.6c1.4,0,2.8,0,4.4,0L331.6,104.2z M352.8,46.8v9.8c4.9-8.3,11.7-12.7,21.7-11.2v12.1
		c-4.8-0.7-9.3-0.8-13.4,2.1c-5.3,3.8-7.2,9.4-7.3,15.6c-0.2,9.5-0.1,19.1-0.1,28.9h-12.5V46.8C345,46.8,348.7,46.8,352.8,46.8z"/>
</g>
</svg>
