<?xml version="1.0" standalone="no"?><!DOCTYPE svg PUBLIC "-//W3C//DTD SVG 1.1//EN" "http://www.w3.org/Graphics/SVG/1.1/DTD/svg11.dtd"><svg class="icon" height="512" viewBox="0 0 1024 1024" version="1.1" xmlns="http://www.w3.org/2000/svg"><path d="M853.312 0H170.688A171.2 171.2 0 0 0 0 170.688v682.624C0 947.2 76.8 1024 170.688 1024h682.624C947.2 1024 1024 947.2 1024 853.312V170.688C1024 76.8 947.2 0 853.312 0z m-93.312 719.168a132.48 132.48 0 0 1-39.36 52.672c-17.92 14.72-40.64 26.432-68.608 35.2-27.904 8.64-61.056 12.992-99.52 12.992H278.08V222.528H568.32c53.632 0 96.64 12.16 128.896 36.8 32.32 24.64 48.512 61.568 48.512 111.36 0 30.08-7.36 55.808-22.08 77.248-14.72 21.12-35.84 37.76-63.232 49.28v1.92c36.48 7.68 64.64 24.96 83.2 51.84 18.56 26.88 28.16 60.8 28.16 101.76 0 23.04-4.48 44.8-12.8 65.28z m-118.4-147.2c-17.472-16-42.112-23.808-73.856-23.808H383.36v186.368h184.96c31.68 0 56.448-8.192 73.856-24.768 17.6-16.384 26.432-39.808 26.432-69.952-0.128-29.44-8.96-52.16-26.432-67.84z m-25.6-120.512c16.832-14.272 25.152-34.816 25.152-61.568 0-30.08-7.488-51.392-22.592-63.616-15.04-12.16-36.8-18.432-65.28-18.432H382.72v164.864h170.624c25.088 0 46.08-7.232 62.72-21.248z" fill="#6b7c93" /></svg>