<?xml version="1.0" encoding="utf-8"?>
<!-- Generator: Adobe Illustrator 22.0.1, SVG Export Plug-In . SVG Version: 6.00 Build 0)  -->
<svg version="1.1" id="Layer_1" xmlns="http://www.w3.org/2000/svg" xmlns:xlink="http://www.w3.org/1999/xlink" x="0px" y="0px"
	 viewBox="0 0 500 150" style="enable-background:new 0 0 500 150;" xml:space="preserve">
<style type="text/css">
	.st0{fill:#6B7C93;}
</style>
<g id="_x23_000000ff">
	<path class="st0" d="M85.8,23.2c33.6-0.4,67.2-0.1,100.8-0.1c0.1,10.5,0.2,21-0.1,31.5c-23.3-0.2-46.6,0-69.8,0.1
		c-0.2,15.3-0.5,30.5-0.3,45.8c23.4,0.1,46.7,0.4,70.1,0.3c0.3,8.6,0.2,17.3-0.1,26c-33.5-0.2-67-0.1-100.5-0.1
		C85.9,92.2,86,57.7,85.8,23.2z"/>
	<path class="st0" d="M198.6,23.1c34-0.1,68.1-0.3,102.1,0.1c-0.1,9.9,0,19.9,0,29.8c-24.8-0.1-49.5,0-74.3,0.3c0,3.9,0,7.8,0,11.7
		c24.7,0.4,49.4,0.4,74.1,0.6c0.1,20.4,0,40.7,0.2,61.1c-34-0.1-68.1,0-102.1,0.1c-0.2-8.2-0.2-16.4,0-24.7
		c23.6,0.1,47.2,0.1,70.8-0.1c0.1-5.3,0.2-10.6,0.2-15.9c-23.7,0-47.4,0.1-71.1-0.1C198.5,65.1,198.5,44.1,198.6,23.1z"/>
	<path class="st0" d="M312.1,23.3c34,0,67.9,0,101.9,0c0.1,10,0.3,20,0,29.9c-24.9,0-49.7,0.1-74.6,0.2c0.1,4.1,0.2,8.2,0.4,12.2
		c24.7-0.1,49.5,0.2,74.2,0.4c0.2,20.3,0.4,40.6,0.1,60.8c-34-0.1-68.1-0.1-102.1,0.1c-0.2-8.2-0.3-16.4,0.1-24.6
		c23.5,0.2,47.1,0.1,70.7-0.1c0.1-5.3,0.2-10.6,0.1-15.9c-23.6,0.2-47.3,0.1-70.9,0C311.8,65.4,312,44.3,312.1,23.3z"/>
</g>
</svg>
