<?xml version="1.0" encoding="utf-8"?>
<!-- Generator: Adobe Illustrator 22.0.1, SVG Export Plug-In . SVG Version: 6.00 Build 0)  -->
<svg version="1.1" id="Layer_1" xmlns="http://www.w3.org/2000/svg" xmlns:xlink="http://www.w3.org/1999/xlink" x="0px" y="0px"
	 viewBox="0 0 500 150" style="enable-background:new 0 0 500 150;" xml:space="preserve">
<style type="text/css">
	.st0{fill:#6B7C93;}
	.st1{fill:none;}
</style>
<title>Gatsby</title>
<desc>Created with Sketch.</desc>
<g id="Gatsby">
	<g id="download" transform="translate(46.000000, 166.000000)">
		<path id="Shape" class="st0" d="M250.3-100.5h13.2v47.3h-13.2v-6.2c-4.7,7.1-10.8,7.6-14.6,7.6c-14.6,0-24.1-11.3-24.1-25.1
			c0-14.1,9.5-25.1,23.1-25.1c3.8,0,10.8,0.5,15.1,7.6v-6C249.8-100.5,250.3-100.5,250.3-100.5z M225.9-76.8
			c0,7.6,5.2,13.2,13.2,13.2c7.6,0,13.2-5.7,13.2-13.2c0-7.6-5.2-13.2-13.2-13.2C231.5-90,225.9-84.3,225.9-76.8z M289.5-89.1v35.9
			h-13.2v-35.9h-5.2v-11.3h5.2v-16.1h13.2v16.1h8.9v11.3H289.5z M329.5-89.1c-3.3-2.8-6.2-3.3-7.6-3.3c-3.3,0-5.2,1.4-5.2,3.8
			c0,1.4,0.5,2.8,4.3,4.3l3.3,1c3.8,1.4,9.5,2.8,11.7,6.6c1.4,1.9,2.4,4.8,2.4,8.1c0,4.3-1.4,8.4-5.2,11.8
			c-3.8,3.3-8.4,5.2-14.1,5.2c-10,0-15.1-4.8-18.4-8.1l7.1-8.1c2.8,2.8,6.6,5.7,10.3,5.7s6.6-1.9,6.6-5.2c0-2.8-2.4-4.3-4.3-4.8
			l-2.8-1c-3.3-1.4-7.1-2.8-10-5.7c-2.4-2.4-3.8-5.2-3.8-8.9c0-4.8,2.4-8.6,4.7-10.8c3.8-2.8,8.4-3.3,12.2-3.3
			c3.3,0,8.9,0.5,15.1,5.2L329.5-89.1L329.5-89.1z M358.2-94.3c4.7-6.6,11.3-7.6,15.1-7.6c13.6,0,23.1,10.8,23.1,25.1
			s-9.5,25.1-23.6,25.1c-2.8,0-10-0.5-15.1-7.6v6.2H345v-79.4h13.2L358.2-94.3L358.2-94.3z M356.8-76.8c0,7.6,5.2,13.2,13.2,13.2
			c7.6,0,13.2-5.7,13.2-13.2c0-7.6-5.2-13.2-13.2-13.2C362-90,356.8-84.3,356.8-76.8z M418.1-60.2l-22.6-40.2H411l14.6,27l13.2-27
			H454l-37.7,72.3h-15.1L418.1-60.2z M208.5-92.4h-33v13.2h17.4c-2.8,8.9-9.5,15.1-21.7,15.1c-13.6,0-23.6-11.3-23.6-25.1
			s9.5-25.5,23.1-25.5c7.6,0,15.1,3.8,19.8,10l10.8-7.1c-7.1-10-18.4-15.6-30.6-15.6c-20.7,0-37.7,17-37.7,38.3s16,38.3,37.7,38.3
			s37.7-17,37.7-38.3C208.9-90.5,208.5-91.5,208.5-92.4z"/>
		<path id="Shape_1_" class="st1" d="M71.8-91h-33v9.5h22.6c-3.3,14.1-13.6,26-27.4,30.8l-54.2-54.3c5.7-16.5,21.7-28.4,40.1-28.4
			c14.1,0,26.8,7.1,34.9,17.9l7.1-6.2c-9.5-12.7-24.5-21.3-42-21.3c-24.5,0-45.2,17.5-50.4,40.6L31.8-40
			C54.3-45.6,71.8-66.4,71.8-91z M-31.9-90.5c0,13.2,5.2,26,15.1,35.9S6.3-39.4,19-39.4L-31.9-90.5z"/>
		<path id="Shape_2_" class="st0" d="M19.9-157.2C-16.3-157.2-46-127.4-46-91s29.7,66.2,65.9,66.2S85.8-54.6,85.8-91
			S56.2-157.2,19.9-157.2z M-16.8-54.1c-10-10-15.1-23.2-15.1-35.9l51.4,51C6.3-39.4-6.9-44.2-16.8-54.1z M31.3-40.5l-61.8-61.9
			c5.2-23.2,26-40.6,50.4-40.6c17.4,0,32.5,8.6,42,21.3l-7.1,6c-8.1-10.8-20.7-17.9-34.9-17.9c-18.4,0-33.9,11.8-40.1,28.4L34-50.8
			c13.7-4.8,24.1-16.5,27.4-30.8H38.8V-91h33C71.8-66.4,54.3-45.6,31.3-40.5z"/>
	</g>
</g>
</svg>
