<?xml version="1.0" encoding="utf-8"?>
<!-- Generator: Adobe Illustrator 22.0.1, SVG Export Plug-In . SVG Version: 6.00 Build 0)  -->
<svg version="1.1" id="Layer_1" xmlns="http://www.w3.org/2000/svg" xmlns:xlink="http://www.w3.org/1999/xlink" x="0px" y="0px"
	 viewBox="0 0 492 159" style="enable-background:new 0 0 492 159;" xml:space="preserve">
<style type="text/css">
	.st0{fill:#6B7C93;}
	.st1{fill:transparent;}
</style>
<title>Gatsby</title>
<desc>Created with Sketch.</desc>
<g id="Gatsby">
	<g id="download" transform="translate(46.000000, 166.000000)">
		<path id="Shape" class="st0" d="M235.1-93h10.5v37.5h-10.5v-4.9c-3.7,5.6-8.6,6-11.6,6c-11.6,0-19.1-9-19.1-19.9
			c0-11.2,7.5-19.9,18.3-19.9c3,0,8.6,0.4,12,6V-93H235.1z M215.7-74.2c0,6,4.1,10.5,10.5,10.5c6,0,10.5-4.5,10.5-10.5
			s-4.1-10.5-10.5-10.5C220.2-84.7,215.7-80.2,215.7-74.2z M266.2-84v28.5h-10.5V-84h-4.1v-9h4.1v-12.8h10.5V-93h7.1v9H266.2z
			 M297.9-84c-2.6-2.2-4.9-2.6-6-2.6c-2.6,0-4.1,1.1-4.1,3c0,1.1,0.4,2.2,3.4,3.4l2.6,0.8c3,1.1,7.5,2.2,9.3,5.2
			c1.1,1.5,1.9,3.8,1.9,6.4c0,3.4-1.1,6.7-4.1,9.4c-3,2.6-6.7,4.1-11.2,4.1c-7.9,0-12-3.8-14.6-6.4l5.6-6.4c2.2,2.2,5.2,4.5,8.2,4.5
			c3,0,5.2-1.5,5.2-4.1c0-2.2-1.9-3.4-3.4-3.8l-2.2-0.8c-2.6-1.1-5.6-2.2-7.9-4.5c-1.9-1.9-3-4.1-3-7.1c0-3.8,1.9-6.8,3.7-8.6
			c3-2.2,6.7-2.6,9.7-2.6c2.6,0,7.1,0.4,12,4.1L297.9-84L297.9-84z M320.7-88.1c3.7-5.2,9-6,12-6c10.8,0,18.3,8.6,18.3,19.9
			s-7.5,19.9-18.7,19.9c-2.2,0-7.9-0.4-12-6v4.9h-10.1v-63h10.5V-88.1L320.7-88.1z M319.6-74.2c0,6,4.1,10.5,10.5,10.5
			c6,0,10.5-4.5,10.5-10.5s-4.1-10.5-10.5-10.5C323.7-84.7,319.6-80.2,319.6-74.2z M368.2-61.1L350.3-93h12.3l11.6,21.4L384.7-93h12
			l-29.9,57.4h-12L368.2-61.1z M201.9-86.6h-26.2v10.5h13.8c-2.2,7.1-7.5,12-17.2,12c-10.8,0-18.7-9-18.7-19.9s7.5-20.2,18.3-20.2
			c6,0,12,3,15.7,7.9l8.6-5.6c-5.6-7.9-14.6-12.4-24.3-12.4c-16.4,0-29.9,13.5-29.9,30.4s12.7,30.4,29.9,30.4s29.9-13.5,29.9-30.4
			C202.2-85.1,201.9-85.9,201.9-86.6z"/>
		<path id="Shape_1_" class="st1" d="M93.5-85.5H67.3v7.5h17.9c-2.6,11.2-10.8,20.6-21.7,24.4l-43-43.1
			c4.5-13.1,17.2-22.5,31.8-22.5c11.2,0,21.3,5.6,27.7,14.2l5.6-4.9c-7.5-10.1-19.4-16.9-33.3-16.9c-19.4,0-35.9,13.9-40,32.2
			L61.7-45C79.6-49.5,93.5-66,93.5-85.5z M11.2-85.1c0,10.5,4.1,20.6,12,28.5s18.3,12,28.4,12L11.2-85.1z"/>
		<path id="Shape_2_" class="st0" d="M52.3-138C23.6-138,0-114.4,0-85.5S23.6-33,52.3-33s52.3-23.6,52.3-52.5S81.1-138,52.3-138z
			 M23.2-56.2c-7.9-7.9-12-18.4-12-28.5L52-44.2C41.5-44.6,31-48.4,23.2-56.2z M61.3-45.4l-49-49.1c4.1-18.4,20.6-32.2,40-32.2
			c13.8,0,25.8,6.8,33.3,16.9L80-105c-6.4-8.6-16.4-14.2-27.7-14.2c-14.6,0-26.9,9.4-31.8,22.5l43,43.1C74.4-57.4,82.6-66.7,85.2-78
			H67.3v-7.5h26.2C93.5-66,79.6-49.5,61.3-45.4z"/>
	</g>
</g>
</svg>
