<?xml version="1.0" encoding="utf-8"?>
<!-- Generator: Adobe Illustrator 22.0.1, SVG Export Plug-In . SVG Version: 6.00 Build 0)  -->
<svg version="1.1" id="Layer_1" xmlns="http://www.w3.org/2000/svg" xmlns:xlink="http://www.w3.org/1999/xlink" x="0px" y="0px"
	 viewBox="0 0 500 150" style="enable-background:new 0 0 500 150;" xml:space="preserve">
<style type="text/css">
	.st0{fill:#6B7C93;}
</style>
<path class="st0" d="M286.5,51.1c-7.9,0-13.8,3.8-13.8,13.2c0,7,3.8,11.8,13.4,11.8c8,0,13.5-4.8,13.5-12.1
	C299.5,55.4,294.7,51.1,286.5,51.1z M270.8,116.8c-1.8,2.3-3.7,4.8-3.7,7.6c0,5.8,7.3,7.5,17.3,7.5c8.3,0,19.6-0.6,19.6-8.3
	c0-4.6-5.5-4.9-12.4-5.3L270.8,116.8L270.8,116.8z M313.1,51.5c2.5,3.2,5.3,7.9,5.3,14.5c0,15.9-12.5,25.2-30.5,25.2
	c-4.6,0-8.7-0.6-11.3-1.3l-4.8,7.6l14.1,0.8c24.8,1.5,39.4,2.3,39.4,21.4c0,16.5-14.5,25.7-39.4,25.7c-25.9,0-35.7-6.6-35.7-17.9
	c0-6.5,2.8-9.8,7.9-14.6c-4.8-2-6.3-5.6-6.3-9.4c0-3.1,1.5-6,4.2-8.7c2.5-2.7,5.5-5.5,8.9-8.6c-7-3.4-12.4-10.8-12.4-21.5
	c0-16.5,10.8-27.7,32.8-27.7c6.2,0,9.8,0.6,13.2,1.4h27.9v12.1L313.1,51.5L313.1,51.5z M351.5,25.5c-8.2,0-12.9-4.8-12.9-12.9
	S343.4,0,351.5,0c8.3,0,13.1,4.5,13.1,12.5C364.5,20.8,359.8,25.5,351.5,25.5z M332.9,111.4v-11.3l7.3-1c2-0.3,2.3-0.7,2.3-2.8V54.3
	c0-1.5-0.4-2.5-1.8-3l-7.7-2.7l1.5-11.5h29.7v59.4c0,2.3,0.1,2.5,2.3,2.8l7.3,1v11.3h-40.8V111.4z M430.4,105.9
	c-6.2,3-15.2,5.8-23.4,5.8c-17,0-23.5-6.9-23.5-23.1V51.1c0-0.8,0-1.4-1.1-1.4h-10V36.9c12.7-1.4,17.6-7.7,19.1-23.4h13.6v20.3
	c0,1,0,1.4,1.1,1.4h20.1v14.3h-21.4v34.2c0,8.4,2,11.7,9.7,11.7c4.1,0,8.2-1,11.5-2.3L430.4,105.9"/>
<path class="st0" d="M218.3,68.4L152.9,3c-3.8-3.8-9.8-3.8-13.6,0l0,0l-13.6,13.6l17.3,17.2c4.1-1.4,8.7-0.3,11.8,2.8
	c3.1,3.1,4.2,7.7,2.7,11.8L174,65c4.1-1.4,8.7-0.4,11.8,2.7c4.5,4.5,4.5,11.8,0,16.2l0,0c-4.5,4.5-11.8,4.5-16.2,0
	c-3.2-3.2-4.2-8.2-2.5-12.5l-15.5-15.5v40.8c1.1,0.6,2.1,1.3,3.1,2.1c4.5,4.5,4.5,11.8,0,16.2l0,0c-4.5,4.5-11.8,4.5-16.2,0
	c-4.5-4.5-4.5-11.8,0-16.2c1.1-1.1,2.4-2,3.8-2.5V55.3c-1.4-0.6-2.7-1.4-3.8-2.5c-3.4-3.4-4.2-8.4-2.5-12.5l-17-17L74.1,68.1
	c-3.8,3.8-3.8,9.8,0,13.6l0,0l65.4,65.4c3.8,3.8,9.8,3.8,13.6,0L218.3,82C222.1,78.2,222.1,72.2,218.3,68.4"/>
</svg>
