<?xml version="1.0" encoding="utf-8"?>
<!-- Generator: Adobe Illustrator 22.0.1, SVG Export Plug-In . SVG Version: 6.00 Build 0)  -->
<svg version="1.1" id="Layer_1" xmlns="http://www.w3.org/2000/svg" xmlns:xlink="http://www.w3.org/1999/xlink" x="0px" y="0px"
	 viewBox="0 0 255.3 106.6" style="enable-background:new 0 0 255.3 106.6;" xml:space="preserve">
<style type="text/css">
	.st0{fill:#6B7C93;}
</style>
<path class="st0" d="M153,36.3c-5.6,0-9.8,2.7-9.8,9.4c0,5,2.7,8.4,9.5,8.4c5.7,0,9.6-3.4,9.6-8.6C162.2,39.4,158.8,36.3,153,36.3z
	 M141.8,83c-1.3,1.6-2.6,3.4-2.6,5.4c0,4.1,5.2,5.3,12.3,5.3c5.9,0,13.9-0.4,13.9-5.9c0-3.3-3.9-3.5-8.8-3.8L141.8,83L141.8,83z
	 M171.9,36.6c1.8,2.3,3.8,5.6,3.8,10.3c0,11.3-8.9,17.9-21.7,17.9c-3.3,0-6.2-0.4-8-0.9l-3.4,5.4l10,0.6c17.6,1.1,28,1.6,28,15.2
	c0,11.7-10.3,18.3-28,18.3c-18.4,0-25.4-4.7-25.4-12.7c0-4.6,2-7,5.6-10.4c-3.4-1.4-4.5-4-4.5-6.7c0-2.2,1.1-4.3,3-6.2
	c1.8-1.9,3.9-3.9,6.3-6.1c-5-2.4-8.8-7.7-8.8-15.3c0-11.7,7.7-19.7,23.3-19.7c4.4,0,7,0.4,9.4,1h19.8v8.6L171.9,36.6L171.9,36.6z
	 M199.2,18.1c-5.8,0-9.2-3.4-9.2-9.2c0-5.8,3.4-8.9,9.2-8.9c5.9,0,9.3,3.2,9.3,8.9C208.4,14.8,205.1,18.1,199.2,18.1z M186,79.2v-8
	l5.2-0.7c1.4-0.2,1.6-0.5,1.6-2V38.6c0-1.1-0.3-1.8-1.3-2.1l-5.5-1.9l1.1-8.2h21.1v42.2c0,1.6,0.1,1.8,1.6,2l5.2,0.7v8H186z
	 M255.3,75.3c-4.4,2.1-10.8,4.1-16.6,4.1c-12.1,0-16.7-4.9-16.7-16.4V36.3c0-0.6,0-1-0.8-1h-7.1v-9.1c9-1,12.5-5.5,13.6-16.6h9.7
	v14.4c0,0.7,0,1,0.8,1h14.3v10.2h-15.2v24.3c0,6,1.4,8.3,6.9,8.3c2.9,0,5.8-0.7,8.2-1.6L255.3,75.3"/>
<path class="st0" d="M104.5,48.6L58,2.1c-2.7-2.7-7-2.7-9.7,0c0,0,0,0,0,0l-9.7,9.7L50.9,24c2.9-1,6.2-0.2,8.4,2
	c2.2,2.2,3,5.5,1.9,8.4L73,46.2c2.9-1,6.2-0.3,8.4,1.9c3.2,3.2,3.2,8.4,0,11.5c0,0,0,0,0,0c-3.2,3.2-8.4,3.2-11.5,0
	c-2.3-2.3-3-5.8-1.8-8.9l-11-11l0,29c0.8,0.4,1.5,0.9,2.2,1.5c3.2,3.2,3.2,8.4,0,11.5c0,0,0,0,0,0c-3.2,3.2-8.4,3.2-11.5,0
	c-3.2-3.2-3.2-8.4,0-11.5c0.8-0.8,1.7-1.4,2.7-1.8V39.3c-1-0.4-1.9-1-2.7-1.8c-2.4-2.4-3-6-1.8-8.9L33.9,16.5L2,48.4
	c-2.7,2.7-2.7,7,0,9.7c0,0,0,0,0,0l46.5,46.5c2.7,2.7,7,2.7,9.7,0l46.3-46.3C107.2,55.6,107.2,51.3,104.5,48.6"/>
</svg>
