<?xml version="1.0" encoding="utf-8"?>
<!-- Generator: Adobe Illustrator 22.0.1, SVG Export Plug-In . SVG Version: 6.00 Build 0)  -->
<svg version="1.1" id="Layer_1" xmlns="http://www.w3.org/2000/svg" xmlns:xlink="http://www.w3.org/1999/xlink" x="0px" y="0px"
	 viewBox="0 0 383.2 274.9" style="enable-background:new 0 0 383.2 274.9;" xml:space="preserve">
<style type="text/css">
	.st0{fill:#6B7C93;}
</style>
<path class="st0" d="M382.8,180.6c-4.2-26.6-21.6-49.1-73.1-69.9c-17.9-8.4-37.8-14.2-43.8-27.8c-2.2-8.1-2.5-12.4-1.1-17.1
	c3.6-15.7,22.2-20.4,36.9-16c9.5,2.9,18.2,10.2,23.8,21.9c25.2-16.4,25.2-16.4,42.7-27.4c-6.5-10.2-9.9-14.6-14.2-19
	C338.5,8.1,318.1-0.7,284.9,0l-17.1,2.2c-16.5,4-32.1,12.8-41.6,24.4c-27.8,31.4-19.7,86.1,13.9,108.8c33.2,24.8,81.8,30.3,88,53.7
	c5.9,28.5-21.2,37.6-47.9,34.3c-19.7-4.4-30.6-14.2-42.7-32.5l-44.5,25.5c5.1,11.7,11,16.8,19.7,27C255,286.2,360.9,284,379.8,219
	c0.8-2.2,5.9-17.1,1.9-40.1L382.8,180.6L382.8,180.6z M164.1,4.2h-54.6c0,47.1-0.2,94.1-0.2,141.3c0,30,1.6,57.5-3.4,66
	c-8.1,16.8-28.7,14.6-38.1,11.7c-9.7-4.8-14.6-11.3-20.2-20.8c-1.6-2.5-2.7-4.8-3.1-4.8L0,225c7.4,15.4,18.2,28.5,32.2,36.9
	c20.8,12.4,48.8,16.5,78,9.9c19.1-5.5,35.5-16.8,44.1-34.3c12.4-22.6,9.8-50.4,9.7-81.4c0.3-50,0-100.1,0-150.4L164.1,4.2L164.1,4.2
	z"/>
</svg>
