<?xml version="1.0" encoding="utf-8"?>
<!-- Generator: Adobe Illustrator 22.0.1, SVG Export Plug-In . SVG Version: 6.00 Build 0)  -->
<svg version="1.1" id="Layer_1" xmlns="http://www.w3.org/2000/svg" xmlns:xlink="http://www.w3.org/1999/xlink" x="0px" y="0px"
	 viewBox="0 0 199.4 45" style="enable-background:new 0 0 199.4 45;" xml:space="preserve">
<style type="text/css">
	.st0{fill:#6B7C93;}
</style>
<g>
	<path class="st0" d="M85.2,17.6L85.2,17.6L84,22.1L85.2,17.6L85.2,17.6z M91.8,27.4l-1.4,0L91.8,27.4L91.8,27.4z M91.4,34.1
		L91.4,34.1l-8.4,0L91.4,34.1z M93.2,27.4l-1.4,0L93.2,27.4z M92.2,33.6l1.5-5.6L92.2,33.6L92.2,33.6z M123.2,7.8l-2.7,12.9
		L123.2,7.8z M116.2,7.8l-2.1,9.6L116.2,7.8z"/>
	<path class="st0" d="M122.7,7.2h-5.8c-0.3,0-0.6,0.2-0.7,0.6L112,27c-0.1,0.3-0.4,0.6-0.7,0.6h-4.1c-4.1,0-3.6-2.8-2.8-6.7l0-0.1
		l0.5-2.6l0.2-1.1l1.9-9.2c0.1-0.3-0.1-0.6-0.5-0.6h-6c-0.3,0-0.6,0.3-0.7,0.6l-2.7,12.8c-1.5,6.8-1.1,13.3,7,13.5l0.2,0H117
		c0.3,0,0.6-0.3,0.7-0.6l5.5-25.7C123.3,7.5,123.1,7.2,122.7,7.2L122.7,7.2z M146.1,27.6c0.3,0,0.5,0.2,0.5,0.4c0,0,0,0.1,0,0.1
		L146,31 M145.4,33.8L146,31L145.4,33.8L145.4,33.8z M144.7,34.4l-10.8,0.1L144.7,34.4L144.7,34.4z"/>
	<path class="st0" d="M130.4,24.1c0-0.3,0.3-0.8,0.7-0.8l-0.7,0C130,26.5,130.4,24.1,130.4,24.1L130.4,24.1z M134.4,34.4l-0.1,0
		L134.4,34.4z M146.1,27.6c0.3,0,0.5,0.2,0.5,0.4c0,0,0,0.1,0,0.1l-0.7,3.2 M137.2,34.4L137.2,34.4L137.2,34.4z M135.8,34.4
		L135.8,34.4L135.8,34.4z M135.3,34.4h-0.1H135.3z M134.9,34.4h-0.1H134.9z M135.7,34.4h-0.4H135.7z"/>
	<path class="st0" d="M137.2,34.4l-1.4,0L137.2,34.4z M144.7,34.4l-7.5,0L144.7,34.4z M145.4,33.8l0.5-2.3L145.4,33.8L145.4,33.8z
		 M135.2,34.4h-0.3H135.2z M134.3,34.4h-0.4H134.3z M134.8,34.4h-0.3H134.8z M49.2,24.1l0.9-4l-1,4.6l-1,4.7l0.9-4.1L49.2,24.1
		L49.2,24.1z M60.1,7.1h-6.4c-0.3,0-0.6,0.2-0.7,0.6l-1.2,5.4c-0.1,0.2,0.1,0.5,0.3,0.6c0,0,0.1,0,0.2,0h6.5c0.3,0,0.6-0.2,0.7-0.6
		l1.2-5.4C60.7,7.4,60.4,7.1,60.1,7.1L60.1,7.1z M58.7,16.1l-1.9,8.7L58.7,16.1z M40.1,45l5.3,0C43.8,45,41.2,45,40.1,45L40.1,45z
		 M51.1,16.1l-0.9,4L51.1,16.1z"/>
	<path class="st0" d="M58.3,15.5h-6.5c-0.3,0-0.6,0.2-0.7,0.6l-1.8,8.1L49,25.3l-1.7,8.2c-0.1,0.4-0.2,0.8-0.3,1.1
		c0,0-1.2,3.6-3.2,3.6l-2,0c-0.3,0-0.6,0.2-0.7,0.6l-1.3,5.6c-0.1,0.2,0.1,0.5,0.3,0.6c0,0,0.1,0,0.2,0l5.3,0
		c5.1,0,7.8-2.8,9.5-10.9l3.9-18C58.8,15.8,58.6,15.5,58.3,15.5L58.3,15.5z M150.2,34.1c-0.3,0-0.5-0.3-0.5-0.6l4.9-22.8"/>
	<path class="st0" d="M156.9,33.5l2-9.7L156.9,33.5z M149.8,33.8c0-0.2,0-0.5,0.1-0.9l2.3-10.8l-2.4,11.4c-0.1,0.3,0.1,0.6,0.5,0.6
		h0.6C150.4,34.1,149.8,34,149.8,33.8L149.8,33.8z"/>
	<path class="st0" d="M156.6,34c-0.2,0.1-0.6,0.1-0.9,0.1h0.6c0.3,0,0.6-0.3,0.7-0.6l0.1-0.6C157,33.2,156.7,33.9,156.6,34L156.6,34
		z M157.9,28.6l0.9-4.3L157.9,28.6z"/>
	<path class="st0" d="M177.1,12.2l0.3,1.1c0.1,0.3-0.1,0.6-0.5,0.6 M157.1,32.9l0.9-4.3L157.1,32.9z M176.9,11.1l0.3,1.1L176.9,11.1
		z M158.8,24.3l0.2-1.1l0.9-4.3l-1.1,4.9L158.8,24.3L158.8,24.3z M154.7,10.3l-2.5,11.8L154.7,10.3L154.7,10.3z"/>
	<path class="st0" d="M177.4,13.3l-0.3-1.1l-0.4-1.7c-0.5-2-2.1-3.2-5.4-3.2l-10,0h-5.4c-0.3,0-0.6,0.3-0.7,0.6L154.9,9l-0.4,1.7
		l-4.7,22.2c-0.1,0.3-0.1,0.7-0.1,0.9c0,0.2,0.7,0.3,1,0.3h4.9c0.3,0,0.7-0.1,0.9-0.1s0.4-0.7,0.5-1l1.9-9.2l2-9.3
		c0.1-0.3,0.4-0.6,0.7-0.6l15.3,0C177.3,13.9,177.5,13.7,177.4,13.3L177.4,13.3z M197.2,3.3l-1.2,0h-4.9c-0.4,0-0.7,0.2-0.9,0.5
		l-10.9,15.9c-0.2,0.3-0.4,0.2-0.5-0.1l-0.8-3.5c-0.1-0.3-0.4-0.6-0.7-0.6h-7c-0.2,0-0.4,0.2-0.5,0.4c0,0.1,0,0.1,0,0.2l3.1,11
		c0.1,0.4,0.1,0.8,0,1.1l-1.4,5.3c-0.1,0.3,0.1,0.6,0.4,0.6h6.9c0.3,0,0.7-0.3,0.7-0.6l1.4-5.3c0.1-0.4,0.3-0.7,0.5-1l17.6-23.4
		c0.2-0.3,0.1-0.5-0.2-0.5L197.2,3.3L197.2,3.3z M141.7,17c0,0.3-0.4,0.6-0.7,0.6h-8.9c-0.3,0-0.5-0.2-0.4-0.5c0,0,0,0,0,0
		c0,0,0,0,0,0l0-0.1c0.8-2.2,2.6-3.7,5.8-3.7C141.2,13.3,141.9,15,141.7,17L141.7,17z M139.1,6.8c-11.4,0-14.1,6.9-15.6,13.9
		c-1.5,7.1-1.4,13.7,10.4,13.7h0.4l0.1,0h0.9l0.4,0l1.4,0l7.5,0c0.3,0,0.6-0.3,0.7-0.6l1.1-5.6c0.1-0.2-0.1-0.5-0.3-0.6
		c0,0-0.1,0-0.1,0h-10.6c-4.2,0-5.5-1.1-5-4.4h16.9c0.3,0,0.5-0.2,0.6-0.4c0,0,0-0.1,0-0.1C150.6,13.2,149.8,6.8,139.1,6.8
		L139.1,6.8z M85.4,17l-0.2,0.6c0,0-1.3,4.5-1.3,4.5l-1.3,4.5c-0.1,0.3-0.4,0.6-0.8,0.6h-6.8c-5.1,0-6.4-4-5.1-9.9
		c1.2-6,3.7-9.8,8.7-10.2C85.7,6.6,87.1,11.4,85.4,17L85.4,17z M90,26.8c0,0,3.2-7.7,3.9-12.2c1-6-2-14.6-13.6-14.6
		C68.9,0,63.9,8.3,62,17.3c-1.9,9.1,0.6,17,12,16.9l17.4-0.1c0.3,0,0.6-0.2,0.7-0.6l1.5-5.6c0.1-0.3-0.1-0.6-0.4-0.6l-2.8,0
		c-0.3,0-0.4-0.2-0.4-0.4C90,26.9,90,26.9,90,26.8L90,26.8z"/>
	<path class="st0" d="M146.9,21.7c0,0.2-0.2,0.4-0.4,0.4c-0.2,0-0.4-0.2-0.4-0.4c0-0.2,0.2-0.4,0.4-0.4S146.9,21.5,146.9,21.7z"/>
</g>
<path class="st0" d="M2.3,11.6C-0.9,16.2-0.5,22.1,1.9,27l0.3,0.6c0,0,0,0.1,0.1,0.1c0,0.1,0.1,0.2,0.1,0.2l0.2,0.4l0.1,0.2l0.4,0.6
	c0.1,0.2,0.3,0.4,0.4,0.6l0.1,0.1c0.1,0.2,0.2,0.3,0.4,0.5l0.1,0.2l0.3,0.4l0.1,0.2c0.1,0.2,0.3,0.3,0.5,0.5c0,0,0,0,0,0
	c0.2,0.2,0.3,0.3,0.5,0.5l0.1,0.1L6,32.5l0.2,0.1c0.2,0.2,0.3,0.3,0.5,0.5c0,0,0.1,0.1,0.1,0.1l0.5,0.4l0.2,0.2L7.8,34L8,34.2
	l0.4,0.3l0.2,0.1c0,0,0,0,0,0c0.1,0.1,0.3,0.2,0.4,0.3L9.3,35c0.2,0.1,0.4,0.3,0.7,0.4l0.2,0.1l0.5,0.3c0.1,0,0.2,0.1,0.3,0.1
	l0.4,0.2l0.1,0l0.1,0.1l0.6,0.3l0.1,0.1c0.2,0.1,0.4,0.2,0.7,0.3l0.2,0.1l0.6,0.2l0.1,0c0.2,0.1,0.5,0.2,0.7,0.2l0.2,0.1
	c0.2,0.1,0.5,0.2,0.7,0.2C30.5,40.4,35,28.4,35,28.4c-3.7,4.9-10.4,6.2-16.7,4.7c-0.2-0.1-0.5-0.1-0.7-0.2l-0.2-0.1
	c-0.2-0.1-0.5-0.1-0.7-0.2l-0.1,0c-0.2-0.1-0.4-0.1-0.6-0.2l-0.2-0.1c-0.2-0.1-0.4-0.2-0.6-0.3L15.1,32l-0.5-0.3l-0.2-0.1L14,31.5
	l-0.3-0.1c-0.2-0.1-0.3-0.2-0.5-0.3L13,30.9c-0.2-0.1-0.4-0.3-0.7-0.4c-0.1,0-0.1-0.1-0.2-0.1l-0.5-0.3L11.6,30l-0.4-0.3l-0.6-0.4
	l-0.2-0.1l-0.5-0.4c0,0,0,0-0.1,0c-0.2-0.2-0.3-0.3-0.5-0.5L9.2,28l-0.4-0.4l-0.1-0.1L8.2,27c0,0,0,0,0,0c-0.2-0.2-0.3-0.4-0.5-0.5
	l-0.1-0.1l-0.3-0.4l-0.1-0.2l-0.4-0.5C3.2,20.5,2,13.9,4.8,8.5 M12.1,7.8C9.8,11.1,10,15.5,11.8,19c0.3,0.6,0.6,1.2,1,1.7
	c0.3,0.5,0.7,1.1,1.2,1.5c0.2,0.2,0.3,0.4,0.5,0.5c0,0,0.1,0.1,0.1,0.1l0.5,0.5c0,0,0,0,0,0c0.2,0.2,0.4,0.3,0.6,0.5l0.1,0.1
	c0.2,0.2,0.4,0.3,0.6,0.5c0,0,0,0,0,0c0.1,0.1,0.2,0.1,0.3,0.2c0,0,0.1,0.1,0.1,0.1c0.2,0.1,0.3,0.2,0.5,0.3l0.1,0l0.4,0.2
	c0,0,0.1,0.1,0.1,0.1l0.3,0.2c0,0,0,0,0,0c0.2,0.1,0.4,0.2,0.6,0.3c0,0,0.1,0,0.1,0.1l0.5,0.2l0.2,0.1c0.2,0.1,0.3,0.1,0.5,0.2
	l0.2,0.1c0.2,0.1,0.4,0.2,0.7,0.2c11.9,2,14.6-7.2,14.6-7.2c-2.5,3.6-7.2,5.2-12.3,3.9c-0.2-0.1-0.4-0.1-0.7-0.2
	c-0.1,0-0.1,0-0.2-0.1c-0.2-0.1-0.3-0.1-0.5-0.2L22,22.9c-0.2-0.1-0.3-0.1-0.5-0.2l-0.2-0.1c-0.2-0.1-0.4-0.2-0.6-0.3
	c-0.1,0-0.2-0.1-0.3-0.2l-0.2-0.1c-0.1-0.1-0.3-0.1-0.4-0.2l-0.1-0.1c-0.2-0.1-0.3-0.2-0.5-0.3c0,0-0.1-0.1-0.1-0.1l-0.3-0.2
	c-0.2-0.1-0.4-0.3-0.6-0.5L18,20.6c-2.2-1.8-4-4.2-4.8-6.9c-0.9-2.8-0.7-6,0.8-8.6 M20.4,4.9c-1.4,2-1.5,4.5-0.5,6.7
	c1,2.3,3,4.2,5.4,5l0.3,0.1l0.1,0l0.4,0.1c6.5,1.3,8.3-3.4,8.8-4c-1.6,2.2-4.2,2.8-7.4,2c-0.3-0.1-0.5-0.1-0.8-0.2
	c-0.3-0.1-0.6-0.2-0.9-0.4c-0.6-0.3-1.1-0.6-1.6-1c-2.9-2.2-4.6-6.3-2.8-9.7"/>
</svg>
