<?xml version="1.0" encoding="utf-8"?>
<!-- Generator: Adobe Illustrator 22.0.1, SVG Export Plug-In . SVG Version: 6.00 Build 0)  -->
<svg version="1.1" id="Layer_1" xmlns="http://www.w3.org/2000/svg" xmlns:xlink="http://www.w3.org/1999/xlink" x="0px" y="0px"
	 viewBox="0 0 500 150" style="enable-background:new 0 0 500 150;" xml:space="preserve">
<style type="text/css">
	.st0{fill:#6B7C93;}
</style>
<g>
	<path class="st0" d="M214.1,62.7L214.1,62.7l-3,11.3L214.1,62.7L214.1,62.7z M230.6,87.3h-3.5H230.6L230.6,87.3z M229.6,104
		L229.6,104h-21H229.6z M234.1,87.3h-3.5H234.1z M231.6,102.8l3.8-14L231.6,102.8L231.6,102.8z M309.2,38.2l-6.8,32.3L309.2,38.2z
		 M291.7,38.2l-5.3,24L291.7,38.2z"/>
	<path class="st0" d="M308,36.7h-14.5c-0.8,0-1.5,0.5-1.8,1.5l-10.5,48.1c-0.3,0.8-1,1.5-1.8,1.5h-10.3c-10.3,0-9-7-7-16.8v-0.3
		l1.3-6.5l0.5-2.8l4.8-23c0.3-0.8-0.3-1.5-1.3-1.5h-15c-0.8,0-1.5,0.8-1.8,1.5l-6.8,32c-3.8,17-2.8,33.3,17.5,33.8h0.5h31.8
		c0.8,0,1.5-0.8,1.8-1.5l13.8-64.3C309.5,37.4,309,36.7,308,36.7L308,36.7z M366.5,87.8c0.8,0,1.3,0.5,1.3,1V89l-1.5,7.3
		 M364.8,103.3l1.5-7L364.8,103.3L364.8,103.3z M363,104.8l-27,0.3L363,104.8L363,104.8z"/>
	<path class="st0" d="M327.2,79c0-0.8,0.8-2,1.8-2h-1.8C326.2,85,327.2,79,327.2,79L327.2,79z M337.3,104.8H337H337.3z M366.5,87.8
		c0.8,0,1.3,0.5,1.3,1V89l-1.8,8 M344.3,104.8L344.3,104.8L344.3,104.8z M340.8,104.8L340.8,104.8L340.8,104.8z M339.5,104.8h-0.3
		H339.5z M338.5,104.8h-0.3H338.5z M340.5,104.8h-1H340.5z"/>
	<path class="st0" d="M344.3,104.8h-3.5H344.3z M363,104.8h-18.8H363z M364.8,103.3l1.3-5.8L364.8,103.3L364.8,103.3z M339.3,104.8
		h-0.8H339.3z M337,104.8h-1H337z M338.3,104.8h-0.8H338.3z M123.9,79l2.3-10l-2.5,11.5l-2.5,11.8l2.3-10.3L123.9,79L123.9,79z
		 M151.2,36.4h-16c-0.8,0-1.5,0.5-1.8,1.5l-3,13.5c-0.3,0.5,0.3,1.3,0.8,1.5c0,0,0.3,0,0.5,0H148c0.8,0,1.5-0.5,1.8-1.5l3-13.5
		C152.7,37.2,152,36.4,151.2,36.4L151.2,36.4z M147.7,59L143,80.8L147.7,59z M101.1,131.3h13.3C110.4,131.3,103.9,131.3,101.1,131.3
		L101.1,131.3z M128.7,59l-2.3,10L128.7,59z"/>
	<path class="st0" d="M146.7,57.5h-16.3c-0.8,0-1.5,0.5-1.8,1.5l-4.5,20.3l-0.8,2.8l-4.3,20.5c-0.3,1-0.5,2-0.8,2.8c0,0-3,9-8,9h-5
		c-0.8,0-1.5,0.5-1.8,1.5l-3.3,14c-0.3,0.5,0.3,1.3,0.8,1.5c0,0,0.3,0,0.5,0h13.3c12.8,0,19.5-7,23.8-27.3l9.8-45.1
		C148,58.2,147.5,57.5,146.7,57.5L146.7,57.5z M376.8,104c-0.8,0-1.3-0.8-1.3-1.5l12.3-57.1"/>
	<path class="st0" d="M393.6,102.5l5-24.3L393.6,102.5z M375.8,103.3c0-0.5,0-1.3,0.3-2.3l5.8-27l-6,28.5c-0.3,0.8,0.3,1.5,1.3,1.5
		h1.5C377.3,104,375.8,103.8,375.8,103.3L375.8,103.3z"/>
	<path class="st0" d="M392.8,103.8c-0.5,0.3-1.5,0.3-2.3,0.3h1.5c0.8,0,1.5-0.8,1.8-1.5l0.3-1.5
		C393.8,101.8,393.1,103.5,392.8,103.8L392.8,103.8z M396.1,90.3l2.3-10.8L396.1,90.3z"/>
	<path class="st0" d="M444.2,49.2l0.8,2.8c0.3,0.8-0.3,1.5-1.3,1.5 M394.1,101l2.3-10.8L394.1,101z M443.7,46.5l0.8,2.8L443.7,46.5z
		 M398.3,79.5l0.5-2.8l2.3-10.8l-2.8,12.3L398.3,79.5L398.3,79.5z M388.1,44.5L381.8,74L388.1,44.5L388.1,44.5z"/>
	<path class="st0" d="M444.9,52l-0.8-2.8l-1-4.3c-1.3-5-5.3-8-13.5-8h-25h-13.5c-0.8,0-1.5,0.8-1.8,1.5l-0.8,2.8l-1,4.3L375.8,101
		c-0.3,0.8-0.3,1.8-0.3,2.3c0,0.5,1.8,0.8,2.5,0.8h12.3c0.8,0,1.8-0.3,2.3-0.3c0.5,0,1-1.8,1.3-2.5l4.8-23l5-23.3
		c0.3-0.8,1-1.5,1.8-1.5h38.3C444.7,53.5,445.2,53,444.9,52L444.9,52z M494.5,26.9h-3h-12.3c-1,0-1.8,0.5-2.3,1.3L449.7,68
		c-0.5,0.8-1,0.5-1.3-0.3l-2-8.8c-0.3-0.8-1-1.5-1.8-1.5h-17.5c-0.5,0-1,0.5-1.3,1c0,0.3,0,0.3,0,0.5l7.8,27.5c0.3,1,0.3,2,0,2.8
		l-3.5,13.3c-0.3,0.8,0.3,1.5,1,1.5h17.3c0.8,0,1.8-0.8,1.8-1.5l3.5-13.3c0.3-1,0.8-1.8,1.3-2.5L499,28.2c0.5-0.8,0.3-1.3-0.5-1.3
		L494.5,26.9L494.5,26.9z M355.5,61.2c0,0.8-1,1.5-1.8,1.5h-22.3c-0.8,0-1.3-0.5-1-1.3l0,0l0,0v-0.3c2-5.5,6.5-9.3,14.5-9.3
		C354.3,52,356,56.2,355.5,61.2L355.5,61.2z M349,35.7c-28.5,0-35.3,17.3-39.1,34.8c-3.8,17.8-3.5,34.3,26,34.3h1h0.3h2.3h1h3.5
		h18.8c0.8,0,1.5-0.8,1.8-1.5l2.8-14c0.3-0.5-0.3-1.3-0.8-1.5h-0.3h-26.5c-10.5,0-13.8-2.8-12.5-11h42.3c0.8,0,1.3-0.5,1.5-1v-0.3
		C377.8,51.7,375.8,35.7,349,35.7L349,35.7z M214.6,61.2l-0.5,1.5L210.8,74l-3.3,11.3c-0.3,0.8-1,1.5-2,1.5h-17
		c-12.8,0-16-10-12.8-24.8c3-15,9.3-24.5,21.8-25.5C215.3,35.2,218.8,47.2,214.6,61.2L214.6,61.2z M226.1,85.8c0,0,8-19.3,9.8-30.5
		c2.5-15-5-36.6-34.1-36.6c-28.5,0-41.1,20.8-45.8,43.3c-4.8,22.8,1.5,42.6,30,42.3l43.6-0.3c0.8,0,1.5-0.5,1.8-1.5l3.8-14
		c0.3-0.8-0.3-1.5-1-1.5h-7c-0.8,0-1-0.5-1-1C226.1,86,226.1,86,226.1,85.8L226.1,85.8z"/>
	<path class="st0" d="M368.6,73c0,0.5-0.5,1-1,1s-1-0.5-1-1s0.5-1,1-1S368.6,72.5,368.6,73z"/>
</g>
<path class="st0" d="M6.5,47.7c-8,11.5-7,26.3-1,38.6l0.8,1.5c0,0,0,0.3,0.3,0.3c0,0.3,0.3,0.5,0.3,0.5l0.5,1L7.5,90l1,1.5
	c0.3,0.5,0.8,1,1,1.5l0.3,0.3c0.3,0.5,0.5,0.8,1,1.3L11,95l0.8,1l0.3,0.5c0.3,0.5,0.8,0.8,1.3,1.3l0,0c0.5,0.5,0.8,0.8,1.3,1.3
	l0.3,0.3l1,0.8l0.5,0.3c0.5,0.5,0.8,0.8,1.3,1.3l0.3,0.3l1.3,1l0.5,0.5l0.8,0.5l0.5,0.5l1,0.8l0.5,0.3l0,0c0.3,0.3,0.8,0.5,1,0.8
	l0.8,0.3c0.5,0.3,1,0.8,1.8,1l0.5,0.3l1.3,0.8c0.3,0,0.5,0.3,0.8,0.3l1,0.5h0.3l0.3,0.3l1.5,0.8l0.3,0.3c0.5,0.3,1,0.5,1.8,0.8
	l0.5,0.3l1.5,0.5h0.3c0.5,0.3,1.3,0.5,1.8,0.5l0.5,0.3c0.5,0.3,1.3,0.5,1.8,0.5c37.6,6.8,48.8-23.3,48.8-23.3
	c-9.3,12.3-26,15.5-41.8,11.8c-0.5-0.3-1.3-0.3-1.8-0.5l-0.5-0.3c-0.5-0.3-1.3-0.3-1.8-0.5h-0.3c-0.5-0.3-1-0.3-1.5-0.5l-0.5-0.3
	c-0.5-0.3-1-0.5-1.5-0.8h-0.3L37.3,98l-0.5-0.3l-1-0.3L35,97.3c-0.5-0.3-0.8-0.5-1.3-0.8L33.3,96c-0.5-0.3-1-0.8-1.8-1
	c-0.3,0-0.3-0.3-0.5-0.3L29.8,94v-0.3l-1-0.8l-1.5-1l-0.5-0.3l-1.3-1c0,0,0,0-0.3,0c-0.5-0.5-0.8-0.8-1.3-1.3l-0.3-0.8l-1-1
	l-0.3-0.3l-1.3-1.3l0,0c-0.5-0.5-0.8-1-1.3-1.3l-0.3-0.3l-0.8-1l-0.3-0.5l-1-1.3c-9-12-12-28.5-5-42.1 M31,38.2
	c-5.8,8.3-5.3,19.3-0.8,28c0.8,1.5,1.5,3,2.5,4.3c0.8,1.3,1.8,2.8,3,3.8c0.5,0.5,0.8,1,1.3,1.3l0.3,0.3l1.3,1.3l0,0
	c0.5,0.5,1,0.8,1.5,1.3l0.3,0.3c0.5,0.5,1,0.8,1.5,1.3l0,0c0.3,0.3,0.5,0.3,0.8,0.5l0.3,0.3c0.5,0.3,0.8,0.5,1.3,0.8h0.3l1,0.5
	l0.3,0.3l0.8,0.5l0,0c0.5,0.3,1,0.5,1.5,0.8c0,0,0.3,0,0.3,0.3l1.3,0.5l0.5,0.3c0.5,0.3,0.8,0.3,1.3,0.5l0.5,0.3
	c0.5,0.3,1,0.5,1.8,0.5c29.8,5,36.6-18,36.6-18c-6.3,9-18,13-30.8,9.8c-0.5-0.3-1-0.3-1.8-0.5c-0.3,0-0.3,0-0.5-0.3
	c-0.5-0.3-0.8-0.3-1.3-0.5l0.3,0c-0.5-0.3-0.8-0.3-1.3-0.5l-0.5-0.3c-0.5-0.3-1-0.5-1.5-0.8c-0.3,0-0.5-0.3-0.8-0.5l-0.5-0.3
	c-0.3-0.3-0.8-0.3-1-0.5L50.1,73c-0.5-0.3-0.8-0.5-1.3-0.8L48.6,72l-0.8-0.5c-0.5-0.3-1-0.8-1.5-1.3l-0.5,0
	c-5.5-4.5-10-10.5-12-17.3c-2.3-7-1.8-15,2-21.5 M51.8,30.9c-3.5,5-3.8,11.3-1.3,16.8c2.5,5.8,7.5,10.5,13.5,12.5l0.8,0.3h0.3l1,0.3
	c16.3,3.3,20.8-8.5,22-10c-4,5.5-10.5,7-18.5,5c-0.8-0.3-1.3-0.3-2-0.5c-0.8-0.3-1.5-0.5-2.3-1c-1.5-0.8-2.8-1.5-4-2.5
	c-7.3-5.5-11.5-15.8-7-24.3"/>
</svg>
