<?xml version="1.0" encoding="utf-8"?>
<!-- Generator: Adobe Illustrator 22.0.1, SVG Export Plug-In . SVG Version: 6.00 Build 0)  -->
<svg version="1.1"
	 id="svg2" inkscape:version="0.91 r13725" sodipodi:docname="MongoDB-Logo.svg" xmlns:cc="http://creativecommons.org/ns#" xmlns:dc="http://purl.org/dc/elements/1.1/" xmlns:inkscape="http://www.inkscape.org/namespaces/inkscape" xmlns:rdf="http://www.w3.org/1999/02/22-rdf-syntax-ns#" xmlns:sodipodi="http://sodipodi.sourceforge.net/DTD/sodipodi-0.dtd" xmlns:svg="http://www.w3.org/2000/svg"
	 xmlns="http://www.w3.org/2000/svg" xmlns:xlink="http://www.w3.org/1999/xlink" x="0px" y="0px" viewBox="0 0 500 150"
	 style="enable-background:new 0 0 500 150;" xml:space="preserve">
<style type="text/css">
	.st0{clip-path:url(#SVGID_2_);}
	.st1{fill:#B8C7D8;}
	.st2{clip-path:url(#SVGID_4_);}
	.st3{fill:#6B7C93;}
	.st4{clip-path:url(#SVGID_6_);}
</style>
<sodipodi:namedview  bordercolor="#666666" borderopacity="1" gridtolerance="10" guidetolerance="10" id="namedview4" inkscape:current-layer="g10" inkscape:cx="210.82244" inkscape:cy="57.558266" inkscape:pageopacity="0" inkscape:pageshadow="2" inkscape:window-height="1145" inkscape:window-maximized="1" inkscape:window-width="1920" inkscape:window-x="0" inkscape:window-y="0" inkscape:zoom="2.0079853" objecttolerance="10" pagecolor="#ffffff" showgrid="false">
	</sodipodi:namedview>
<g id="g10" transform="matrix(1.25,0,0,-1.25,0,143.2125)" inkscape:groupmode="layer" inkscape:label="ink_ext_XXXXXX">
	<g id="g12" transform="scale(0.1,0.1)">
		<g id="g14">
			<g>
				<defs>
					<path id="SVGID_1_" d="M261.9,1.5l-28.4,9.9c0,0,3.6,151.6-48.3,162.3c-34.2,41.8,5.3,1784.9,129.6,6c0,0-42.6-22.5-50.6-60.8
						C256.1,80.7,261.9,1.5,261.9,1.5z"/>
				</defs>
				<clipPath id="SVGID_2_">
					<use xlink:href="#SVGID_1_"  style="overflow:visible;"/>
				</clipPath>
				<g id="g16" class="st0">
					<path id="path30" inkscape:connector-curvature="0" class="st1" d="M261.9,1.5l-28.4,9.9c0,0,3.6,151.6-48.3,162.3
						c-34.2,41.8,5.3,1784.9,129.6,6c0,0-42.6-22.5-50.6-60.8C256.1,80.7,261.9,1.5,261.9,1.5"/>
				</g>
			</g>
		</g>
		<g id="g32">
			<g>
				<defs>
					<path id="SVGID_3_" d="M277.2,148c0,0,247.1,171.5,189.2,527.6c-55.7,258.7-187.4,343.8-201.5,376.2
						c-15.6,23-31.3,63.7-31.3,63.7l10.5-720.9C244.2,394.6,222.4,174.5,277.2,148L277.2,148z"/>
				</defs>
				<clipPath id="SVGID_4_">
					<use xlink:href="#SVGID_3_"  style="overflow:visible;"/>
				</clipPath>
				<g id="g34" class="st2">
					<path id="path46" inkscape:connector-curvature="0" class="st3" d="M277.2,148c0,0,247.1,171.5,189.2,527.6
						c-55.7,258.7-187.4,343.8-201.5,376.2c-15.6,23-31.3,63.7-31.3,63.7l10.5-720.9C244.2,394.6,222.4,174.5,277.2,148"/>
				</g>
			</g>
		</g>
		<g id="g48">
			<g>
				<defs>
					<path id="SVGID_5_" d="M219,138.4c0,0-231.8,166.6-218.4,460.5c13.3,294,177,438.5,208.9,464.7c20.6,23.2,21.5,32.1,23.1,54.9
						c14.4-32.7,12-488.4,13.6-541.7C252.1,369.5,235.2,177.5,219,138.4z"/>
				</defs>
				<clipPath id="SVGID_6_">
					<use xlink:href="#SVGID_5_"  style="overflow:visible;"/>
				</clipPath>
				<g id="g50" class="st4">
					<path id="path62" inkscape:connector-curvature="0" class="st3" d="M219,138.4c0,0-231.8,166.6-218.4,460.5
						c13.3,294,177,438.5,208.9,464.7c20.6,23.2,21.5,32.1,23.1,54.9c14.4-32.7,12-488.4,13.6-541.7
						C252.1,369.5,235.2,177.5,219,138.4"/>
				</g>
			</g>
		</g>
		<path id="path64" inkscape:connector-curvature="0" class="st3" d="M3019.7,233.3c16.4-13.8,49.2-19.5,78.1-19.5
			c37.5,0,74.2,7.3,110.1,41.4c36.7,34.9,61.7,88.6,61.7,173.8c0,82-29.7,148.7-90.6,187.7c-34.4,22.7-78.8,31.7-129.6,31.7
			c-14.8,0-29.7-0.8-38.3-4.9c-2.3-1.6-7-8.1-7-11.4c-1.6-14.6-1.6-125.9-1.6-191.7c0-67.4,0-161.7,1.6-173
			C3004.9,257.6,3009.6,240.6,3019.7,233.3z M2863.9,684.9c13.3,0,63.7-2.4,87.1-2.4c43.7,0,74.2,2.4,156.1,2.4
			c68.7,0,126.5-19.5,167.9-56.9c50-45.5,76.5-108.9,76.5-186c0-109.7-47.6-173-95.2-208.8c-47.6-37.4-109.3-58.5-197.5-58.5
			c-46.8,0-127.3,1.6-194.4,2.4h-0.9c-3.1,6.5,5.8,31.8,11.2,32.5c18.1,2.2,23.1,2.9,31.5,6.6c14.2,6.1,17.5,13.8,19.1,40.6
			c2.3,50.4,1.6,110.5,1.6,178.7c0,48.7,0.8,143.8-0.8,173.8c-2.3,25.2-12.5,31.7-32.8,36.6c-10.2,2.4-24.2,4.9-43.7,7.3
			C2848,658.1,2860,680,2863.9,684.9"/>
		<path id="path66" inkscape:connector-curvature="0" class="st3" d="M3558.2,645.1c-3.1-0.8-7-8.9-7-13
			c-0.8-29.2-1.5-105.6-1.5-158.4c0-1.6,2.3-4.1,3.9-4.1c10.1-0.8,35.1-1.6,56.2-1.6c29.7,0,46.9,4.1,56.2,8.9
			c25,13,36.7,41.4,36.7,72.3c0,70.7-46.8,97.5-116.3,97.5C3581.7,646.7,3568.4,646.7,3558.2,645.1L3558.2,645.1z M3735.5,320.2
			c0,71.5-50,112.1-141.3,112.1c-3.9,0-32.8,0.8-39.8-0.8c-2.3-0.8-4.7-2.4-4.7-4.1c0-51.2-0.8-133.2,1.5-165.7
			c1.6-13.8,10.9-33.3,22.6-39c12.5-7.3,40.6-8.9,60.1-8.9C3687.8,213.8,3735.5,245.4,3735.5,320.2L3735.5,320.2z M3417.2,684.9
			c7,0,27.8-2.4,80.9-2.4c50,0,90.6,1.6,139,1.6c60.1,0,142.9-22.7,142.9-117c0-46.3-31.2-83.7-71.8-101.5c-2.3-0.8-2.3-2.4,0-3.2
			c57.8-15.4,108.5-52.8,108.5-124.3c0-69.9-41.4-113.7-101.5-141.4c-36.7-17.1-82-22.7-128-22.7c-35.1,0-129.3,4.1-181.6,3.2
			c-5.5,2.4,5,28.4,9.7,32.5c12.5,0.8,22.1,1.8,35.4,5.8c18.7,4.9,20.9,11.2,23.3,40.5c1.6,25.2,1.6,115.3,1.6,179.5
			c0,87.7,0.8,147,0,176.3c-0.8,22.8-8.6,30.1-23.4,34.1c-11.7,2.4-31.2,4.9-46.8,7.3C3401.3,657.3,3413.3,681.7,3417.2,684.9"/>
		<path id="path68" inkscape:connector-curvature="0" class="st3" d="M624.3,175.1c-1.3,2.2-2.7,8.6-2.4,16.4
			c0.2,5.9,1.3,9.7,2.4,10.9c14.7,2.4,21.7,4.1,30,6.4c13.8,3.6,19,11.5,19.8,30.1c2.3,43.8,2.4,126,1.6,183.7l0,1.7
			c0.1,6.2,0.2,14.7-7.2,20.6c-10.8,7.5-24.3,13.7-41.4,19.1c-6.5,2-10.2,5.7-10,9.9c0.2,4.1,4.3,9.2,12.8,11
			c22.6,2.5,81.9,17.3,105.1,28.6c1.4-1.8,3.5-5.6,3.1-11.7c-0.2-2.6-0.4-5.2-0.6-8c-0.7-8.2-1.4-17.4-1.4-26.6
			c0-2.7,2.8-5.3,5.8-5.3c1.5,0,2.9,0.6,4,1.8c44.3,36.6,84,49.6,104.4,49.6c33.5,0,59.6-16.9,79.8-51.5c1.2-1.8,2.8-2.8,4.5-2.8
			c1.7,0,3.3,0.9,4.2,2.4c40.8,32.5,81.2,52,108.2,52c63.9,0,102.1-50.4,102.1-134.7c0-24.2-0.2-54.9-0.4-83.6
			c-0.2-25.1-0.4-48.7-0.4-65c0-4,5-14.9,12.6-17.1c9.3-4.8,22.8-7.2,39.9-10.3l0.7-0.1c1.3-4.8-1.4-23.6-4-27.5
			c-4.2,0-10.1,0.4-17.4,0.7c-13.3,0.7-31.5,1.7-52.6,1.7c-42.5,0-64.7-0.9-85.8-2.3c-1.6,5.6-2.2,23.6-0.2,27.3
			c12.4,2.4,18.5,4.1,25.9,6.4c13.5,4.7,17.4,11.1,18.2,30c0.3,13.4,2.8,131.7-1.6,159.8c-4,29.1-24.8,63.1-70.4,63.1
			c-16.9,0-44.2-7.4-70.3-28.2c-1.6-1.7-2.5-4.9-2.5-7l0-0.5c3.1-15.2,3.1-32.8,3.1-59.6c0-15.2-0.1-31.4-0.2-47.5
			c-0.2-32.6-0.3-63.4,0.2-86.6c0-15.9,9.1-19.6,16.4-22.7c4-0.9,7.1-1.7,10.3-2.5c6.1-1.6,12.5-3.2,21.9-4.8
			c1.3-3.1,1.4-12.5-0.4-20.4c-1-4.4-2.1-6.4-2.7-7c-23.6,0.9-47.8,1.6-82.8,1.6c-10.6,0-27.9-0.5-43.2-0.9
			c-12.4-0.3-24.1-0.7-30.8-0.7c-1,1.6-2.3,6.8-2.3,14.2c0,6.9,1.2,11.7,2.4,13.2c3.3,0.6,6.4,1.2,9.4,1.8
			c8.2,1.5,15.3,2.9,22.1,4.6c11.6,3.7,15.9,10.5,16.8,26c2.3,36.2,4,140.3-0.8,166.4c-8.3,41.9-30.9,63.1-67.3,63.1
			c-21.3,0-48.2-10.8-70.2-28.2c-3.7-2.9-6.5-10.1-6.5-16.7c0-12.4,0-27.2-0.1-43c-0.1-52.3-0.3-117.4,0.9-145.6
			c0.7-8.7,3.6-19,19.1-22.8c3.4-1,9.2-2,16-3.2c3.9-0.7,8.2-1.4,12.6-2.3c1.6-4.5,0.6-22-2.1-27.5c-6.8,0-15.1,0.5-24.7,0.9
			c-14.6,0.7-32.8,1.5-53.6,1.5c-24.4,0-41.4-0.9-55-1.5C640.2,175.6,632.3,175.2,624.3,175.1L624.3,175.1"/>
		<path id="path70" inkscape:connector-curvature="0" class="st3" d="M1398.8,478.9c-14.2,0-27.5-3.9-37.3-11
			c-27.1-17.4-40.9-52-40.9-102.9c0-95.3,45.3-161.9,110.3-161.9c19.2,0,34.8,5.8,47.7,17.7c20,17.1,30.5,52.1,30.5,101.1
			C1509.1,415.9,1464.8,478.9,1398.8,478.9L1398.8,478.9L1398.8,478.9z M1411.3,167.8c-117.3,0-159.1,90.5-159.1,175.3
			c0,59.2,23,105.5,68.4,137.5c32.3,20.9,70.8,32.9,105.5,32.9c89.5,0,152-67.7,152-164.7c0-65.9-25-118-72.2-150.5
			C1483.3,183.6,1444,167.8,1411.3,167.8L1411.3,167.8"/>
		<path id="path72" inkscape:connector-curvature="0" class="st3" d="M2613.5,478.9c-14.2,0-27.5-3.9-37.4-11
			c-27.1-17.4-40.9-52-40.9-102.9c0-95.3,45.3-161.9,110.3-161.9c19.2,0,34.8,5.8,47.7,17.7c19.9,17.1,30.5,52.1,30.5,101.1
			C2723.7,415.9,2679.4,478.9,2613.5,478.9L2613.5,478.9L2613.5,478.9z M2625.9,167.8c-117.3,0-159.1,90.5-159.1,175.3
			c0,59.2,23,105.5,68.4,137.5c32.2,20.9,70.7,32.9,105.5,32.9c89.5,0,152-67.7,152-164.7c0-66-25-118-72.2-150.5
			C2697.9,183.6,2658.6,167.8,2625.9,167.8L2625.9,167.8"/>
		<path id="path74" inkscape:connector-curvature="0" class="st3" d="M2220.9,482.2c-36.2,0-59.5-30.1-59.5-76.6
			c0-46.9,20.1-101.7,76.7-101.7c9.7,0,27.3,4.5,36.1,14.7c13.2,12.7,21.7,39,21.7,66.8C2296,446,2267.9,482.2,2220.9,482.2
			L2220.9,482.2z M2216.3,161.3c-13.6,0-23.5-4.2-29.4-7.6c-28.6-19.3-41.9-38.6-41.9-60.8c0-20.9,7.7-37.6,24.3-52.4
			c20.1-17.9,47.2-26.6,82.8-26.6c70.1,0,101.5,39.7,101.5,79c0,27.4-13.1,45.7-39.9,56.1C2293.1,156.9,2258.6,161.3,2216.3,161.3
			L2216.3,161.3L2216.3,161.3z M2220.9-27.2c-42.1,0-72.4,9.4-98.4,30.3c-25.2,20.5-36.5,50.9-36.5,71.8c0,6,1.4,21.6,13.8,36.5
			c7.3,8.8,24.3,25.2,63.6,53.6c1.2,0.5,2,1.7,2,3.2c0,1.7-1,3.1-2.5,3.4c-32.4,13-42.1,34.4-45.1,46c0,0.4-0.2,1.1-0.3,1.8
			c-0.9,4.6-1.8,8.9,4.1,13.3c4.5,3.4,11.8,7.9,19.5,12.7c11.4,7.1,24.3,15.1,31.4,21.5c1.1,1.2,1.6,2.9,1.3,4.6
			c-0.3,1.7-1.2,3.1-2.6,3.9c-47.9,16.9-72,54.4-72,111.4c0,36.8,16.1,70.1,44.2,91.3c19.3,16,67.6,35.3,98.9,35.3l1.8,0
			c32.2-0.8,50.4-7.9,75.5-17.7c13.6-5.3,26.6-7.5,44.6-7.5c26.7,0,38.3,8.9,48.3,19.1c0.6-1.3,1.9-5.3,2.5-14.5
			c0.6-9.4-1.8-23.4-8.7-33.4c-5.5-7.9-18.1-13.7-30-13.7c-1.2,0-2.4,0.1-3.5,0.2c-12.3,1.3-18.1,3.2-18.1,3.2l-3-1.1
			c-0.9-1.5-0.3-3.1,0.4-5.1c0.2-0.5,0.4-1,0.4-1.3c1.6-6.6,4.3-25.8,4.3-31.2c0-59.8-22.4-85.9-46.6-105.1
			c-23.1-18.4-50.1-29.4-80.6-32.8h0c-0.6,0-3.5-0.3-9.3-0.8c-3.7-0.4-8.4-0.8-9.1-0.8l-0.7-0.1c-5.3-1.6-19-8.4-19-21.2
			c0-10.6,6.2-23.8,35.9-26.2c6-0.5,12.5-0.9,19.2-1.4c39.2-2.9,88.1-6.4,111.2-14.7c31.7-12.1,51.4-42,51.4-77.9
			c0-53.6-36.2-104.1-96.9-134.9C2283.2-20.1,2253.3-27.2,2220.9-27.2L2220.9-27.2"/>
		<path id="path76" inkscape:connector-curvature="0" class="st3" d="M2028.4,203.7c-17.2,2.4-29.7,4.9-44.5,12.2
			c-2.3,1.6-5.5,8.9-5.5,11.4c-1.6,25.2-1.6,98.3-1.6,146.2c0,39-6.2,73.1-21.8,97.5c-18.7,27.6-45.3,43.9-79.6,43.9
			c-30.4,0-71-21.9-104.6-52c-0.8-0.8-5.9-6-5.8,2c0.1,8,1.3,24.2,2,34.5c0.7,10.2-5.1,15.1-5.1,15.1
			c-21.9-11.4-83.4-26.8-106.1-29.2c-16.6-3.4-20.8-20.2-3.1-26v0c0,0,0.2-0.1,0.3-0.1c18.5-5.9,31-12.1,40.3-18.6
			c7-5.7,6.2-13.8,6.2-20.3c0.8-54.4,0.8-138.1-1.6-183.6c-0.8-17.9-5.5-24.4-18-27.6l1.1,0.4c-9.4-2.4-17.2-4.1-28.9-5.7
			c-3.9-4.1-3.9-27.6,0-32.5c7.8,0,47.6,2.4,80.4,2.4c45.3,0,68.7-2.4,80.4-2.4c4.7,5.7,6.2,27.6,3.1,32.5
			c-13.3,0.8-22.6,2.4-32,4.9c-12.5,3.2-15.6,9.7-16.4,24.4c-1.6,38.2-1.6,119.4-1.6,174.7c0,15.4,3.9,22.7,8.6,26.8
			c15.6,14.6,41.4,24.4,64,24.4c21.8,0,36.7-7.3,47.6-17c14.8-13,20.3-31.7,21.9-45.5c3.1-30.9,2.3-92.6,2.3-146.2
			c0-29.2-2.3-36.6-12.5-39.8c-4.7-2.4-17.2-4.9-32-6.5c-4.7-4.9-3.1-27.6,0-32.5c20.3,0,43.7,2.4,78.1,2.4
			c42.9,0,70.3-2.4,81.2-2.4C2029.9,176.9,2031.5,198.1,2028.4,203.7"/>
		<path id="path78" inkscape:connector-curvature="0" class="st3" d="M3926.5,243.8h13.2c10.7,0,14.7,3.9,14.7,14.1
			c0,10.3-3.9,13.7-15.9,13.7h-12V243.8z M3954.6,200.1l-15.6,35.3h-12.5v-35.3h-9.1v80.3h22.5c16.8,0,23.7-7.9,23.7-22.5
			c0-11.8-5.3-19.3-15.1-21.4l16.1-36.4L3954.6,200.1L3954.6,200.1z M3939.9,298.1c-30.7,0-55.1-25.5-55.1-58
			c0-31.9,24.4-57.6,54.9-57.6c30.3,0,54.7,25.7,54.7,57.6C3994.4,272.7,3970.7,298.1,3939.9,298.1z M3939.7,176.7
			c-33.9,0-60.3,27.8-60.3,63.5c0,35.9,26.4,63.5,60.5,63.5c33.2,0,60.1-28,60.1-62.6C4000,204.9,3973.6,176.7,3939.7,176.7"/>
	</g>
</g>
</svg>
