<?xml version="1.0" encoding="utf-8"?>
<!-- Generator: Adobe Illustrator 22.0.1, SVG Export Plug-In . SVG Version: 6.00 Build 0)  -->
<svg version="1.1" id="svg3030" xmlns:svg="http://www.w3.org/2000/svg"
	 xmlns="http://www.w3.org/2000/svg" xmlns:xlink="http://www.w3.org/1999/xlink" x="0px" y="0px" viewBox="0 0 500 150"
	 style="enable-background:new 0 0 500 150;" xml:space="preserve">
<style type="text/css">
	.st0{fill:#6B7C93;}
</style>
<g id="layer1" transform="translate(-115.94417,-501.42131)">
	<path id="path22" class="st0" d="M369.1,499.3c-0.3,0-0.7,0.1-1,0.3c-0.6,0.4-1,1.2-1,2v58c0,0.6-0.2,1.1-0.7,1.4
		c-0.4,0.3-1,0.3-1.4,0l-8.4-5.5c-1.2-0.8-2.8-0.8-4,0l-33.4,21.8c-1.2,0.8-2,2.4-2,4V625c0,1.6,0.8,3.1,2,3.9l33.4,21.8
		c1.2,0.8,2.8,0.8,4,0l33.4-21.8c1.2-0.8,2-2.3,2-3.9V516.1c0-1.7-0.8-3.2-2.1-4l-19.9-12.6C369.8,499.3,369.5,499.3,369.1,499.3
		L369.1,499.3z M154.4,553.8c-0.6,0-1.2,0.2-1.8,0.5l-33.4,21.8c-1.2,0.8-2,2.3-2,3.9l0.1,58.6c0,0.8,0.4,1.6,1,2
		c0.6,0.4,1.4,0.4,2,0l19.8-12.9c1.3-0.8,2.1-2.3,2.1-3.9v-27.4c0-1.6,0.8-3.1,2-3.9l8.4-5.5c0.6-0.4,1.3-0.6,2-0.6
		c0.7,0,1.4,0.2,2,0.6l8.4,5.5c1.2,0.8,2,2.3,2,3.9v27.4c0,1.6,0.8,3.1,2.1,3.9l19.8,12.9c0.6,0.4,1.4,0.4,2,0c0.6-0.4,1-1.2,1-2
		l0.1-58.6c0-1.6-0.8-3.1-2-3.9l-33.4-21.8c-0.6-0.4-1.2-0.5-1.8-0.5H154.4L154.4,553.8z M454.4,554.3c-0.7,0-1.4,0.2-2,0.6
		L419,576.8c-1.2,0.8-2,2.3-2,3.9v43.7c0,1.6,0.8,3.1,2.1,3.9l33.1,21.4c1.2,0.8,2.7,0.9,3.9,0.1l20.1-12.7c0.6-0.4,1.1-1.1,1.1-2
		c0-0.8-0.4-1.6-1-2l-33.6-21.8c-0.6-0.4-1.1-1.2-1.1-2v-13.7c0-0.8,0.4-1.6,1.1-2l10.4-6.8c0.6-0.4,1.4-0.4,2,0l10.4,6.8
		c0.6,0.4,1,1.2,1,2v10.8c0,0.8,0.4,1.6,1,2c0.6,0.4,1.4,0.4,2,0l20-13.2c1.2-0.8,2-2.3,2-3.9v-10.5c0-1.6-0.8-3.1-2-3.9L456.4,555
		C455.7,554.5,455.1,554.3,454.4,554.3L454.4,554.3z M354.5,587c0.2,0,0.4,0,0.5,0.2l11.4,7.5c0.3,0.2,0.5,0.6,0.5,1v15
		c0,0.4-0.2,0.8-0.5,1l-11.4,7.5c-0.3,0.2-0.7,0.2-1,0l-11.4-7.5c-0.3-0.2-0.5-0.6-0.5-1v-15c0-0.4,0.2-0.8,0.5-1l11.4-7.5
		C354.2,587,354.4,587,354.5,587L354.5,587z"/>
	<path id="path28" class="st0" d="M554.4,553.3c-1.2,0-2.3,0.3-3.3,0.9l-31.5,20.6c-2,1.3-3.3,3.8-3.3,6.5v41.2
		c0,2.7,1.2,5.2,3.3,6.5l8.2,5.4c4,2.2,5.5,2.2,7.3,2.2c5.9,0,9.3-4.1,9.3-11.1v-40.6c0-0.6-0.4-1-0.9-1h-3.9c-0.5,0-0.9,0.4-0.9,1
		v40.6c0,3.1-2.9,6.3-7.6,3.6l-8.6-5.7c-0.3-0.2-0.5-0.5-0.5-0.9v-41.2c0-0.4,0.2-0.8,0.5-1l31.4-20.6c0.3-0.2,0.6-0.2,0.9,0
		l31.4,20.6c0.3,0.2,0.5,0.6,0.5,1v41.2c0,0.4-0.2,0.8-0.5,1l-31.5,20.6c-0.3,0.2-0.6,0.2-0.9,0l-8.1-5.5c-0.2-0.2-0.6-0.1-0.8,0
		c-2.2,1.4-2.7,1.6-4.8,2.4c-0.5,0.2-1.3,0.5,0.3,1.5l10.6,7.1c1,0.7,2.1,1,3.3,1c1.2,0,2.3-0.3,3.3-1l31.5-20.6
		c2-1.3,3.3-3.8,3.3-6.5v-41.2c0-2.7-1.2-5.2-3.3-6.5l-31.5-20.6C556.7,553.6,555.5,553.3,554.4,553.3L554.4,553.3z M254.6,554.1
		c-0.7,0-1.4,0.2-2,0.6l-33.4,21.8c-1.2,0.8-2,2.4-2,4v43.7c0,1.6,0.8,3.1,2,3.9l33.4,21.8c1.2,0.8,2.8,0.8,4,0l33.4-21.8
		c1.2-0.8,2-2.3,2-3.9v-43.7c0-1.6-0.8-3.2-2-4l-33.4-21.8C256,554.3,255.3,554.1,254.6,554.1z M601.2,554.3v1.1h2.6v7.8h1.1v-7.8
		h2.7v-1.1H601.2z M608.5,554.3v8.9h1V558c0-0.2,0-0.5,0-1c0-0.5,0-0.8,0-1.1v-0.2l2.2,7.5h1.1l2.3-7.5c0,0.5-0.1,0.9-0.1,1.4
		c0,0.4,0,0.7,0,0.9v5.2h1v-8.9h-1.5l-2.3,7.5l-2.2-7.5L608.5,554.3L608.5,554.3z M562.8,582.7c-9,0-14.3,4.3-14.3,11.5
		c0,7.8,5.3,10,13.9,10.9c10.3,1.1,11.1,2.9,11.1,5.2c0,4-2.8,5.7-9.4,5.7c-8.3,0-10.2-2.4-10.8-7.1c-0.1-0.5-0.4-0.9-0.9-0.9h-4.1
		c-0.5,0-0.9,0.5-0.9,1.1c0,6,2.9,13.1,16.7,13.1c10,0,15.7-4.4,15.7-12.2c0-7.7-4.6-9.8-14.3-11.2c-9.8-1.5-10.7-2.2-10.7-4.8
		c0-2.1,0.8-5,8-5c6.5,0,8.9,1.6,9.8,6.5c0.1,0.5,0.4,0.8,0.9,0.8h4.1c0.3,0,0.5-0.2,0.7-0.4c0.2-0.2,0.3-0.5,0.3-0.8
		C577.9,586.7,572.9,582.7,562.8,582.7L562.8,582.7z M454.3,593.1c-0.1,0-0.3,0-0.4,0.1l-6.4,4.2c-0.2,0.2-0.4,0.4-0.4,0.8v8.3
		c0,0.3,0.2,0.6,0.4,0.8l6.4,4.2c0.2,0.2,0.5,0.2,0.7,0l6.4-4.2c0.2-0.2,0.4-0.4,0.4-0.8v-8.3c0-0.3-0.2-0.6-0.4-0.8l-6.4-4.2
		C454.5,593.1,454.4,593.1,454.3,593.1z"/>
</g>
</svg>
