<?xml version="1.0" encoding="utf-8"?>
<!-- Generator: Adobe Illustrator 22.0.1, SVG Export Plug-In . SVG Version: 6.00 Build 0)  -->
<svg version="1.1" id="Layer_1" xmlns="http://www.w3.org/2000/svg" xmlns:xlink="http://www.w3.org/1999/xlink" x="0px" y="0px"
	 viewBox="0 0 493.5 277.8" style="enable-background:new 0 0 493.5 277.8;" xml:space="preserve">
<style type="text/css">
	.st0{fill:#6B7C93;}
</style>
<path class="st0" d="M107.8,93H70.7l-15.2,92.5h34.7c0,0,42.2,1.3,44.2-59.9C136.3,90.4,107.8,93,107.8,93L107.8,93z M424.5,93
	h-37.1l-15.2,92.5h34.7c0,0,42.2,1.3,44.2-59.9C452.9,90.4,424.5,93,424.5,93L424.5,93z M88.3,220l-37.5-0.3l-10.6,58.2l-40.2,0
	L36.2,58.9c0,0,51.5,0.8,85.2,0c33.8-0.8,67,27.4,51.5,91.2C154.4,226.2,88.3,220,88.3,220L88.3,220z M269,220
	c0,0,9.6-50.9,13.9-86.2c1.7-14.5,9.3-39.2-10.8-39.2c-16.8-0.1-42-0.2-42-0.2L208.9,220h-39.8L206.3,0H247l-10.2,58.9h42
	c0,0,55.7-5.2,49,49c-6.6,54.2-19,112.1-19,112.1L269,220L269,220z M489.6,150.1C471.1,226.2,405,220,405,220l-37.5-0.3l-10.6,58.2
	h-40.2l36.2-218.9c0,0,51.5,0.8,85.2,0C471.9,58.1,505.2,86.3,489.6,150.1L489.6,150.1z"/>
</svg>
