<?xml version="1.0" encoding="utf-8"?>
<!-- Generator: Adobe Illustrator 22.0.1, SVG Export Plug-In . SVG Version: 6.00 Build 0)  -->
<svg version="1.1" id="Layer_1" xmlns="http://www.w3.org/2000/svg" xmlns:xlink="http://www.w3.org/1999/xlink" x="0px" y="0px"
	 viewBox="0 0 500 150" style="enable-background:new 0 0 500 150;" xml:space="preserve">
<style type="text/css">
	.st0{fill:#6B7C93;}
</style>
<path class="st0" d="M175,50.2h-20l-8.2,49.9h18.7c0,0,22.8,0.7,23.9-32.3C190.4,48.8,175,50.2,175,50.2L175,50.2z M345.9,50.2h-20
	l-8.2,49.9h18.7c0,0,22.8,0.7,23.9-32.3C361.3,48.8,345.9,50.2,345.9,50.2L345.9,50.2z M164.5,118.7l-20.2-0.2l-5.7,31.4h-21.7
	l19.5-118.2c0,0,27.8,0.4,46,0c18.2-0.4,36.2,14.8,27.8,49.2C200.1,122.1,164.5,118.7,164.5,118.7L164.5,118.7z M262,118.7
	c0,0,5.2-27.5,7.5-46.5c0.9-7.8,5-21.2-5.8-21.2C254.6,51,241,51,241,51l-11.4,67.8h-21.5L228.2,0h22l-5.5,31.8h22.7
	c0,0,30.1-2.8,26.4,26.4c-3.6,29.3-10.3,60.5-10.3,60.5H262L262,118.7z M381.1,81c-10,41.1-45.7,37.7-45.7,37.7l-20.2-0.2l-5.7,31.4
	h-21.7l19.5-118.2c0,0,27.8,0.4,46,0C371.5,31.4,389.5,46.6,381.1,81L381.1,81z"/>
</svg>
