<?xml version="1.0" encoding="utf-8"?>
<!-- Generator: Adobe Illustrator 22.0.1, SVG Export Plug-In . SVG Version: 6.00 Build 0)  -->
<svg version="1.1" id="fe80fb2b-bcaf-407e-919b-306adc32f78b"
	 xmlns="http://www.w3.org/2000/svg" xmlns:xlink="http://www.w3.org/1999/xlink" x="0px" y="0px" viewBox="0 0 840 600.8"
	 style="enable-background:new 0 0 840 600.8;" xml:space="preserve">
<style type="text/css">
	.st0{fill:#F2F2F2;}
	.st1{fill:none;stroke:#3F3D56;stroke-miterlimit:10;}
	.st2{opacity:0.3;fill:#595186;enable-background:new    ;}
	.st3{fill:#595186;}
</style>
<title>profile</title>
<path class="st0" d="M84.4,66.8h698.2c10.7,0,19.4,8.7,19.4,19.4v460.2c0,10.7-8.7,19.4-19.4,19.4H84.4c-10.7,0-19.4-8.7-19.4-19.4
	V86.2C65,75.4,73.7,66.8,84.4,66.8z"/>
<path class="st1" d="M61.9,35.3h698.2c10.7,0,19.4,8.7,19.4,19.4v460.2c0,10.7-8.7,19.4-19.4,19.4H61.9c-10.7,0-19.4-8.7-19.4-19.4
	V54.7C42.5,43.9,51.2,35.3,61.9,35.3z"/>
<line class="st1" x1="42.5" y1="83.1" x2="779.5" y2="83.1"/>
<path class="st2" d="M490.1,195.3h186.8c3.9,0,7.1,3.2,7.1,7.1v16.8c0,3.9-3.2,7.1-7.1,7.1H490.1c-3.9,0-7.1-3.2-7.1-7.1v-16.8
	C483,198.4,486.2,195.3,490.1,195.3z"/>
<path class="st2" d="M451.6,281.3h263.8c3.9,0,7.1,3.2,7.1,7.1v10.8c0,3.9-3.2,7.1-7.1,7.1H451.6c-3.9,0-7.1-3.2-7.1-7.1v-10.8
	C444.5,284.4,447.7,281.3,451.6,281.3z"/>
<path class="st2" d="M451.6,349.3h263.8c3.9,0,7.1,3.2,7.1,7.1v10.8c0,3.9-3.2,7.1-7.1,7.1H451.6c-3.9,0-7.1-3.2-7.1-7.1v-10.8
	C444.5,352.4,447.7,349.3,451.6,349.3z"/>
<path class="st2" d="M451.6,417.3h263.8c3.9,0,7.1,3.2,7.1,7.1v10.8c0,3.9-3.2,7.1-7.1,7.1H451.6c-3.9,0-7.1-3.2-7.1-7.1v-10.8
	C444.5,420.4,447.7,417.3,451.6,417.3z"/>
<path class="st1" d="M500.1,185.3h186.8c3.9,0,7.1,3.2,7.1,7.1v16.8c0,3.9-3.2,7.1-7.1,7.1H500.1c-3.9,0-7.1-3.2-7.1-7.1v-16.8
	C493,188.4,496.2,185.3,500.1,185.3z"/>
<path class="st1" d="M461.6,271.3h263.8c3.9,0,7.1,3.2,7.1,7.1v10.8c0,3.9-3.2,7.1-7.1,7.1H461.6c-3.9,0-7.1-3.2-7.1-7.1v-10.8
	C454.5,274.4,457.7,271.3,461.6,271.3z"/>
<path class="st1" d="M461.6,339.3h263.8c3.9,0,7.1,3.2,7.1,7.1v10.8c0,3.9-3.2,7.1-7.1,7.1H461.6c-3.9,0-7.1-3.2-7.1-7.1v-10.8
	C454.5,342.4,457.7,339.3,461.6,339.3z"/>
<path class="st1" d="M461.6,407.3h263.8c3.9,0,7.1,3.2,7.1,7.1v10.8c0,3.9-3.2,7.1-7.1,7.1H461.6c-3.9,0-7.1-3.2-7.1-7.1v-10.8
	C454.5,410.4,457.7,407.3,461.6,407.3z"/>
<circle class="st2" cx="98.5" cy="65.3" r="15"/>
<circle class="st2" cx="140.5" cy="65.3" r="15"/>
<circle class="st2" cx="182.5" cy="65.3" r="15"/>
<circle class="st1" cx="104.5" cy="59.3" r="15"/>
<circle class="st1" cx="146.5" cy="59.3" r="15"/>
<circle class="st1" cx="188.5" cy="59.3" r="15"/>
<path class="st3" d="M275.4,513.3c-2.5-11.6-3.2-27.4-2.3-38.4c0,0-12.7-55.8-22.7-61l0,0c-0.2,0.2-5,6.6-5.6,26.2
	c-0.6,20-7.7,33.1-7.7,33.1s2.3,24.9,1,40L275.4,513.3z"/>
<path class="st3" d="M367.7,158.3H137.3c-13.1,0-23.8,10.6-23.8,23.8c0,0,0,0,0,0v307.5c0,13.1,10.6,23.8,23.8,23.8h0h80.9
	c-2.7-11.2-6.1-28.7-2.7-40.9l0,0l0,0c0.2-0.6,0.3-1.1,0.5-1.7c2.3-7.9,3.1-16.2,2.3-24.4c1.5-7,1.5-14.2,0-21.2
	c-2.5-11.7-4.2-23.1-4.2-23.1s-1.4-15.4-0.2-24.8c0-0.2,0.1-0.4,0.1-0.6c-0.4-0.1-0.7-0.2-0.7-0.2s3.5-16,4.8-26.2
	c0.3-2.4,0.7-5.5,1.1-8.7c-1.2-0.2-2.3-0.5-3.4-0.9c-11.2-4-14.8-39.8-14.8-39.8v-11.3c0,0-3.7-17.4,9.4-25.1
	c12.6-7.4,17.7-9.4,18-9.6c0.1-0.1,0.2-0.1,0.3-0.2c1.4-1.1,2.6-2.6,3.3-4.2c0-0.3,0-0.6,0-0.9c-0.2-4.1-3-7.8-5.7-11
	c-2.3-2.8-4.6-5.5-6.9-8.3c-0.8-0.8-1.4-1.8-1.8-2.9c-0.1-0.6-0.2-1.2-0.2-1.8c0-0.2,0-0.4,0-0.7c0-2.1,0.1-4.1,0.2-6.2
	c0.1-1.8,0.5-4.1,2.3-4.4c0.9-0.2,2.1,0.1,2.6-0.7c0.2-0.3,0.2-0.7,0.1-1.1c0,0,0,0.1,0,0.1c0,0,0-0.1,0-0.1
	c-0.4-1.4-0.6-2.9-0.7-4.4c0-0.7,0.1-1.3,0.3-2c1-3,4.5-4.2,7.6-4.8c3.1-0.6,6.6-1,8.5-3.5c0.5-0.8,1.1-1.6,1.7-2.4
	c0.9-0.8,2-1.4,3.2-1.6c3.8-1,7.9-0.6,11.5,1c1.5,0.7,3,1.6,4.6,1.5c1.7-0.1,3.2-1.3,4.8-1.6c2.7-0.5,5.3,1.6,6.7,4
	c0.9,1.5,1.3,3.3,1.2,5c0,1.7-0.6,3.4-1.8,4.7c-1.2,1.2-2.9,2.1-3.4,3.7c-0.2,0.7-0.2,1.4-0.3,2.1c0,0.1-0.1,0.2-0.1,0.2
	c0,0,0.1,0.1,0.1,0.1c7.1,9.3,5.3,22.7-4.1,29.7c-1.9,1.4-4,2.5-6.3,3.3c0,0.2,0,0.4,0,0.6c-0.1,2.7,0.9,5.2,2.8,7.1l18.5,7.6
	c0,0,11.2-1.4,15.2,15.3c0.6,2.8,0.9,5.6,0.7,8.5c-0.1,2.5,0.2,6.9,3.1,12.7c4.6,9.2,3.5,30.2-5.8,32.3c-8.9,2-12.3,1.1-12.7,1.1
	l0,0.4c0.1,3.9,1.6,38,6.6,42.1c1.4,1.1,1.1,1.9,0,2.4l0,0c0,0,0,0.2,0,0.6c0.2,2.5,0.9,12,4.4,17.4c4,6.2,3.5,42.3,3.5,42.3
	l2.7,21.2c0,0-1.7,13.1,0,15.4c0.9,1.3,2.1,21.4,2.9,38.6h69.5c13.1,0,23.8-10.6,23.8-23.8V182C391.5,168.9,380.9,158.3,367.7,158.3
	L367.7,158.3z"/>
<path class="st1" d="M113.3,131.3h230.5c13.1,0,23.8,10.6,23.8,23.8v307.5c0,13.1-10.6,23.8-23.8,23.8H113.3
	c-13.1,0-23.8-10.6-23.8-23.8V155C89.5,141.9,100.1,131.3,113.3,131.3z"/>
</svg>
