<?xml version="1.0" encoding="utf-8"?>
<!-- Generator: Adobe Illustrator 22.0.1, SVG Export Plug-In . SVG Version: 6.00 Build 0)  -->
<svg version="1.1" id="Layer_1" xmlns:sketch="http://www.bohemiancoding.com/sketch/ns"
	 xmlns="http://www.w3.org/2000/svg" xmlns:xlink="http://www.w3.org/1999/xlink" x="0px" y="0px" viewBox="0 0 2983 907.3"
	 style="enable-background:new 0 0 2983 907.3;" xml:space="preserve">
<style type="text/css">
	.st0{fill:#6B7C93;}
	.st1{fill:none;stroke:#6B7C93;stroke-width:24;}
</style>
<title>react-logo</title>
<desc>Created with Sketch.</desc>
<g id="Page-1" sketch:type="MSPage">
	<g id="logo-_x28_1_x29_" transform="translate(12.000000, 17.000000)" sketch:type="MSLayerGroup">
		<circle id="Oval" sketch:type="MSShapeGroup" class="st0" cx="499.2" cy="435.8" r="93.1">
		</circle>
		<path id="Shape" sketch:type="MSShapeGroup" class="st1" d="M499.2,246.4c125,0,241.2,17.9,328.8,48.1
			c105.5,36.3,170.4,91.4,170.4,141.3c0,52-68.8,110.5-182.1,148C730.6,612.2,617.9,627,499.2,627c-121.7,0-236.9-13.9-323.6-43.5
			C66.1,546,0,486.8,0,435.8c0-49.5,61.9-104.1,166-140.4C253.9,264.8,373,246.4,499.2,246.4L499.2,246.4z"/>
		<path id="Shape_1_" sketch:type="MSShapeGroup" class="st1" d="M334.4,341.7c62.5-108.3,136-200,205.9-260.8
			c84.2-73.3,164.3-102,207.5-77.1c45,26,61.3,114.8,37.3,231.7c-18.2,88.4-61.7,193.5-121,296.3
			c-60.8,105.4-130.4,198.3-199.3,258.6c-87.2,76.2-171.5,103.8-215.7,78.4c-42.8-24.7-59.2-105.7-38.7-213.9
			C227.7,563.3,271.3,451,334.4,341.7L334.4,341.7z"/>
		<path id="Shape_2_" sketch:type="MSShapeGroup" class="st1" d="M334.6,532.1C272,423.9,229.3,314.4,211.5,223.5
			C190.1,114,205.2,30.2,248.4,5.2c45-26,130.1,4.2,219.3,83.4c67.5,59.9,136.8,150.1,196.3,252.8c61,105.3,106.7,212,124.4,301.8
			c22.5,113.6,4.3,200.5-39.8,226c-42.8,24.8-121.1-1.5-204.7-73.3C473.3,735.2,397.8,641.3,334.6,532.1L334.6,532.1z"/>
	</g>
	<path id="React" sketch:type="MSShapeGroup" class="st0" d="M1651.2,629.8l-127-191.9c64.2-5.6,122-52.2,122-136.9
		c0-86.8-61.4-141.8-147.4-141.8h-189.1v470.5h58.6V442.9h93.8L1582,629.8L1651.2,629.8L1651.2,629.8z M1491.7,391.4h-123.5V211.5
		h123.5c55.7,0,93.8,36.7,93.8,89.6S1547.4,391.4,1491.7,391.4L1491.7,391.4z M1869.1,638.3c55.7,0,101.6-18.3,135.4-52.2
		l-25.4-34.6c-26.8,27.5-66.3,43-105.1,43c-73.4,0-118.5-53.6-122.7-117.8h275.8v-13.4c0-102.3-60.7-182.7-163.7-182.7
		c-97.4,0-167.9,79.7-167.9,178.5C1695.6,565.7,1768.3,638.3,1869.1,638.3L1869.1,638.3z M1974.9,438h-223.6
		c2.8-52.2,38.8-113.6,111.5-113.6C1940.4,324.4,1974.2,387.2,1974.9,438L1974.9,438z M2378.5,629.8V395.6c0-82.5-60-115-131.9-115
		c-55.7,0-99.5,18.3-136.1,56.4l24.7,36.7c30.3-32.4,63.5-47.3,104.4-47.3c49.4,0,86.1,26.1,86.1,72v61.4
		c-27.5-31.7-66.3-46.6-112.9-46.6c-57.8,0-119.2,36-119.2,112.2c0,74.1,61.4,112.9,119.2,112.9c45.9,0,84.7-16.2,112.9-47.3v38.8
		L2378.5,629.8L2378.5,629.8z M2231.7,600.2c-49.4,0-83.9-31-83.9-74.1c0-43.7,34.6-74.8,83.9-74.8c37.4,0,73.4,14.1,93.8,42.3v64.2
		C2305.1,586.1,2269.1,600.2,2231.7,600.2L2231.7,600.2z M2634.5,638.3c62.1,0,98.8-25.4,124.9-59.3l-35.3-32.4
		c-22.6,30.3-51.5,44.4-86.8,44.4c-72.7,0-117.8-56.4-117.8-131.9s45.1-131.2,117.8-131.2c35.3,0,64.2,13.4,86.8,44.4l35.3-32.5
		c-26.1-33.9-62.8-59.3-124.9-59.3c-101.6,0-170,77.6-170,178.5C2464.5,560.7,2533,638.3,2634.5,638.3L2634.5,638.3z M2919.5,638.3
		c31,0,50.1-9.2,63.5-21.9l-15.5-39.5c-7.1,7.8-21.2,14.1-36,14.1c-23.3,0-34.6-18.3-34.6-43.7V335.7h69.1v-46.6h-69.1V196H2844
		v93.1h-56.4v46.6h56.4v222.9C2844.1,609.4,2869.5,638.3,2919.5,638.3L2919.5,638.3z"/>
</g>
</svg>
