<?xml version="1.0" encoding="utf-8"?>
<!-- Generator: Adobe Illustrator 22.0.1, SVG Export Plug-In . SVG Version: 6.00 Build 0)  -->
<svg version="1.1" id="Layer_1" xmlns:sketch="http://www.bohemiancoding.com/sketch/ns"
	 xmlns="http://www.w3.org/2000/svg" xmlns:xlink="http://www.w3.org/1999/xlink" x="0px" y="0px" viewBox="0 0 3000 1290.3"
	 style="enable-background:new 0 0 3000 1290.3;" xml:space="preserve">
<style type="text/css">
	.st0{fill:#6B7C93;}
	.st1{fill:none;stroke:#6B7C93;stroke-width:24;}
</style>
<title>react-logo</title>
<desc>Created with Sketch.</desc>
<g id="Page-1" sketch:type="MSPage">
	<g id="logo-_x28_1_x29_" transform="translate(12.000000, 17.000000)" sketch:type="MSLayerGroup">
		<circle id="Oval" sketch:type="MSShapeGroup" class="st0" cx="510.6" cy="630.3" r="93.1">
		</circle>
		<path id="Shape" sketch:type="MSShapeGroup" class="st1" d="M510.6,440.9c125,0,241.2,17.9,328.8,48.1
			c105.5,36.3,170.4,91.4,170.4,141.3c0,52-68.8,110.5-182.1,148c-85.7,28.4-198.4,43.2-317.1,43.2c-121.7,0-236.9-13.9-323.6-43.5
			C77.5,740.5,11.4,681.3,11.4,630.3c0-49.5,61.9-104.1,166-140.4C265.3,459.3,384.4,440.9,510.6,440.9L510.6,440.9z"/>
		<path id="Shape_1_" sketch:type="MSShapeGroup" class="st1" d="M345.8,536.2c62.5-108.3,136-200,205.9-260.8
			c84.2-73.3,164.3-102,207.5-77.1c45,26,61.3,114.8,37.3,231.7c-18.2,88.4-61.7,193.5-121,296.3
			c-60.8,105.4-130.4,198.3-199.3,258.6c-87.2,76.2-171.5,103.8-215.7,78.4c-42.8-24.7-59.2-105.7-38.7-213.9
			C239.1,757.8,282.7,645.5,345.8,536.2L345.8,536.2z"/>
		<path id="Shape_2_" sketch:type="MSShapeGroup" class="st1" d="M346,726.6c-62.6-108.2-105.3-217.7-123.1-308.6
			c-21.4-109.5-6.3-193.3,36.9-218.3c45-26,130.1,4.2,219.3,83.4c67.5,59.9,136.8,150.1,196.3,252.8c61,105.3,106.7,212,124.4,301.8
			c22.5,113.6,4.3,200.5-39.8,226c-42.8,24.8-121.1-1.5-204.7-73.3C484.7,929.7,409.2,835.8,346,726.6L346,726.6z"/>
	</g>
	<path id="React" sketch:type="MSShapeGroup" class="st0" d="M1662.6,824.3l-127-191.9c64.2-5.6,122-52.2,122-136.9
		c0-86.8-61.4-141.8-147.4-141.8h-189.1v470.5h58.6V637.4h93.8l119.9,186.9H1662.6z M1503.1,585.9h-123.5V406h123.5
		c55.7,0,93.8,36.7,93.8,89.6S1558.8,585.9,1503.1,585.9L1503.1,585.9z M1880.5,832.8c55.7,0,101.6-18.3,135.4-52.2l-25.4-34.6
		c-26.8,27.5-66.3,43-105.1,43c-73.4,0-118.5-53.6-122.7-117.8h275.8v-13.4c0-102.3-60.7-182.7-163.7-182.7
		c-97.4,0-167.9,79.7-167.9,178.5C1707,760.2,1779.7,832.8,1880.5,832.8L1880.5,832.8z M1986.3,632.5h-223.6
		c2.8-52.2,38.8-113.6,111.5-113.6C1951.8,518.9,1985.6,581.7,1986.3,632.5L1986.3,632.5z M2389.9,824.3V590.1
		c0-82.5-60-115-131.9-115c-55.7,0-99.5,18.3-136.1,56.4l24.7,36.7c30.3-32.4,63.5-47.3,104.4-47.3c49.4,0,86.1,26.1,86.1,72v61.4
		c-27.5-31.7-66.3-46.6-112.9-46.6c-57.8,0-119.2,36-119.2,112.2c0,74.1,61.4,112.9,119.2,112.9c45.9,0,84.7-16.2,112.9-47.3v38.8
		L2389.9,824.3L2389.9,824.3z M2243.1,794.7c-49.4,0-83.9-31-83.9-74.1c0-43.7,34.6-74.8,83.9-74.8c37.4,0,73.4,14.1,93.8,42.3v64.2
		C2316.5,780.6,2280.5,794.7,2243.1,794.7L2243.1,794.7z M2645.9,832.8c62.1,0,98.8-25.4,124.9-59.3l-35.3-32.4
		c-22.6,30.3-51.5,44.4-86.8,44.4c-72.7,0-117.8-56.4-117.8-131.9s45.1-131.2,117.8-131.2c35.3,0,64.2,13.4,86.8,44.4l35.3-32.5
		c-26.1-33.9-62.8-59.3-124.9-59.3c-101.6,0-170,77.6-170,178.5C2475.9,755.2,2544.4,832.8,2645.9,832.8L2645.9,832.8z
		 M2930.9,832.8c31,0,50.1-9.2,63.5-21.9l-15.5-39.5c-7.1,7.8-21.2,14.1-36,14.1c-23.3,0-34.6-18.3-34.6-43.7V530.2h69.1v-46.6
		h-69.1v-93.1h-52.9v93.1H2799v46.6h56.4v222.9C2855.5,803.9,2880.9,832.8,2930.9,832.8L2930.9,832.8z"/>
</g>
</svg>
