<?xml version="1.0" encoding="utf-8"?>
<!-- Generator: Adobe Illustrator 22.0.1, SVG Export Plug-In . SVG Version: 6.00 Build 0)  -->
<svg version="1.1" id="Layer_1" xmlns="http://www.w3.org/2000/svg" xmlns:xlink="http://www.w3.org/1999/xlink" x="0px" y="0px"
	 viewBox="0 0 500 150" style="enable-background:new 0 0 500 150;" xml:space="preserve">
<style type="text/css">
	.st0{fill:#6B7C93;}
	.st1{fill:none;stroke:#6B7C93;stroke-width:50;}
</style>
<g transform="matrix(.06928 0 0 .06928 7.367398 13.505331)">
	<circle class="st0" cx="1543.6" cy="885.6" r="210.7"/>
	<g>
		<path class="st1" d="M1543.6,457.2c282.9,0,545.7,40.6,743.8,108.8c238.7,82.2,385.5,206.8,385.5,319.6
			c0,117.6-155.6,249.9-411.9,334.9c-193.8,64.2-448.9,97.7-717.4,97.7c-275.3,0-536-31.5-732.1-98.4
			c-248-84.8-397.4-218.8-397.4-334.1c0-111.9,140.2-235.5,375.5-317.6C988.7,498.7,1257.9,457.2,1543.6,457.2L1543.6,457.2z"/>
		<path class="st1" d="M1170.7,672.7c141.3-245.1,307.8-452.4,465.9-590C1827-83.1,2008.3-148,2106-91.6
			c101.8,58.7,138.8,259.6,84.3,524.1c-41.2,200-139.6,437.7-273.7,670.3c-137.5,238.5-295,448.6-451,584.9
			c-197.3,172.5-388.1,234.9-488,177.3c-96.9-55.9-134-239.1-87.5-484C929.4,1174.1,1028,920.1,1170.7,672.7L1170.7,672.7z"/>
		<path class="st1" d="M1171.1,1103.4c-141.7-244.8-238.2-492.6-278.5-698.3C844.1,157.4,878.4-32.1,976-88.6
			c101.7-58.9,294.2,9.4,496.2,188.7c152.7,135.6,309.5,339.5,444,571.9c137.9,238.3,241.3,479.7,281.5,682.8
			c50.9,257.1,9.7,453.5-90.1,511.3c-96.8,56.1-274-3.3-463-165.9C1485,1562.9,1314.2,1350.6,1171.1,1103.4L1171.1,1103.4z"/>
	</g>
</g>
<path class="st0" d="M276.3,112.2l-17.9-27c9-0.8,17.2-7.3,17.2-19.3c0-12.2-8.6-20-20.8-20h-26.6v66.3h8.2V85.8h13.2l16.9,26.3
	L276.3,112.2z M253.9,78.6h-17.4V53.2h17.4c7.9,0,13.2,5.2,13.2,12.6S261.7,78.6,253.9,78.6L253.9,78.6z M307,113.3
	c7.9,0,14.3-2.6,19.1-7.3l-3.6-4.9c-3.8,3.9-9.3,6.1-14.8,6.1c-10.3,0-16.7-7.6-17.3-16.6h38.8v-1.9c0-14.4-8.5-25.7-23.1-25.7
	c-13.7,0-23.6,11.2-23.6,25.1C282.6,103.1,292.8,113.3,307,113.3L307,113.3z M322,85.1h-31.5c0.4-7.3,5.5-16,15.7-16
	C317.1,69.1,321.9,78,322,85.1z M378.8,112.2v-33c0-11.6-8.4-16.2-18.6-16.2c-7.9,0-14,2.6-19.2,8l3.5,5.2c4.3-4.6,8.9-6.7,14.7-6.7
	c7,0,12.1,3.7,12.1,10.1v8.6c-3.9-4.5-9.3-6.6-15.9-6.6c-8.1,0-16.8,5.1-16.8,15.8c0,10.4,8.6,15.9,16.8,15.9
	c6.5,0,11.9-2.3,15.9-6.7v5.5L378.8,112.2z M358.1,108c-7,0-11.8-4.4-11.8-10.4c0-6.2,4.9-10.5,11.8-10.5c5.3,0,10.3,2,13.2,6v9
	C368.5,106,363.4,108,358.1,108L358.1,108z M414.8,113.3c8.7,0,13.9-3.6,17.6-8.3l-5-4.6c-3.2,4.3-7.3,6.3-12.2,6.3
	c-10.2,0-16.6-8-16.6-18.6s6.4-18.5,16.6-18.5c5,0,9,1.9,12.2,6.3l5-4.6c-3.7-4.8-8.8-8.3-17.6-8.3c-14.3,0-23.9,10.9-23.9,25.1
	C390.9,102.4,400.5,113.3,414.8,113.3L414.8,113.3z M455,113.3c4.4,0,7.1-1.3,8.9-3.1l-2.2-5.6c-1,1.1-2.9,2-5.1,2
	c-3.3,0-4.9-2.6-4.9-6.2V70.7h9.7v-6.6h-9.7V51h-7.5v13.1h-8v6.6h8v31.4C444.4,109.3,447.9,113.4,455,113.3L455,113.3z"/>
</svg>
