<?xml version="1.0" encoding="utf-8"?>
<!-- Generator: Adobe Illustrator 22.0.1, SVG Export Plug-In . SVG Version: 6.00 Build 0)  -->
<svg version="1.1" id="Layer_1" xmlns="http://www.w3.org/2000/svg" xmlns:xlink="http://www.w3.org/1999/xlink" x="0px" y="0px"
	 viewBox="0 0 67 50" style="enable-background:new 0 0 67 50;" xml:space="preserve">
<style type="text/css">
	.st0{fill:#6B7C93;}
</style>
<path class="st0" d="M66.9,35.4c-0.2-1.9-1.2-3.5-2.7-4.6c-1.8-1.4-3.8-1.9-6-2c-1.8-0.1-3.5,0.2-5.2,0.8c-0.5,0.2-0.9,0.4-1.4,0.6
	c-0.1-0.1-0.1-0.2-0.2-0.3c-0.5-1-1.1-2-1.2-3.1c-0.1-0.8-0.2-1.6,0-2.5c0.2-0.8,0.4-1.6,0.7-2.3c0.1-0.4,0-0.6-0.3-0.8
	c-0.1-0.1-0.3-0.1-0.4-0.1c-0.9-0.1-1.9-0.1-2.8,0.2c-0.3,0.1-0.6,0.3-0.6,0.6c0,0.2-0.1,0.4-0.2,0.6c-0.2,0.8-0.4,1.7-0.8,2.5
	c-1,2-2.1,3.9-3.2,5.8c-0.1,0.2-0.2,0.4-0.4,0.7c-0.4-0.8-0.8-1.6-0.9-2.4c-0.1-1-0.3-2,0-2.9c0.2-0.7,0.4-1.4,0.6-2.1
	c0.1-0.3,0.1-0.5-0.3-0.7c-0.2-0.1-0.3-0.2-0.5-0.2c-1-0.1-1.9-0.1-2.9,0.2c-0.3,0.1-0.4,0.3-0.5,0.6c-0.3,0.9-0.5,1.8-0.8,2.6
	c-1.5,3.4-3,6.8-4.5,10.2c-0.3,0.7-0.7,1.4-1,2.1c-0.1,0.2-0.2,0.3-0.3,0.5c-0.1-0.1-0.1-0.2-0.1-0.3c0-0.4,0-0.9,0-1.3
	c0.2-1.3,0.5-2.5,0.8-3.8c0.2-1,0.5-2.1,0.8-3.1c0.1-0.3,0.1-0.7-0.2-1c-0.4-0.5-1.3-0.6-1.8-0.2c-0.1,0-0.1,0.1-0.2,0.1
	c0-0.2,0-0.3,0-0.4c0.1-0.8,0.1-1.6-0.1-2.4c-0.3-1-1-1.5-2-1.5c-0.5,0-0.9,0.1-1.4,0.3c-1.8,0.7-3.2,2-4.4,3.5
	c-0.1,0.1-0.2,0.3-0.4,0.3c-1.5,0.9-3.1,1.7-4.6,2.6L15.6,33c-0.5-0.4-0.9-0.9-1.4-1.3c-1.5-1.2-2.9-2.3-4.4-3.5
	c-1.3-1-2.6-2.1-3.5-3.5c-0.7-1-1.2-2.1-1.2-3.4c-0.1-1.6,0.4-3.1,1.2-4.5c1.1-1.8,2.5-3.2,4.1-4.4c1.7-1.4,3.5-2.5,5.3-3.5
	C18.4,7.3,21.1,6,24,5.2c3-0.9,6-1.4,9.1-1c1.2,0.1,2.4,0.4,3.5,1c0.8,0.5,1.5,1.1,1.8,2C38.7,8,38.6,9,38.4,9.9
	c-0.4,1.9-1.5,3.4-2.8,4.8c-2.1,2.3-4.7,3.8-7.7,4.9c-1.7,0.6-3.4,1-5.2,1.1c-1.5,0.1-2.9,0-4.3-0.5c-0.9-0.3-1.7-0.9-2.4-1.6
	c-0.1-0.1-0.3-0.3-0.5-0.2c-0.2,0.1-0.2,0.3-0.2,0.5c0.1,0.3,0.2,0.7,0.4,1c0.5,0.7,1.1,1.3,1.9,1.8c1.4,0.9,3,1.2,4.6,1.3
	c2.5,0.1,4.9-0.3,7.3-0.9c3.4-1,6.4-2.6,8.8-5.3c2-2.2,3.4-4.7,3.7-7.7c0.1-1.5,0-2.9-0.7-4.2c-0.7-1.5-1.9-2.5-3.3-3.2
	C36,0.5,33.8,0.1,31.5,0h-2.3c-2.8,0.1-5.5,0.7-8.1,1.7c-2,0.7-3.9,1.5-5.8,2.5C11.2,6.2,7.4,8.6,4.3,12c-1.6,1.7-2.9,3.6-3.6,5.8
	c-0.2,0.6-0.4,1.3-0.5,2c0,0.1,0,0.1-0.1,0.2v0.9c0.1,0.2,0.2,0.5,0.2,0.7c0.4,1.6,1.2,2.9,2.3,4.1c1.5,1.7,3.2,3.2,5.1,4.5
	c1.6,1.1,3.2,2.3,4.8,3.4c0.3,0.2,0.5,0.4,0.8,0.7c-0.3,0.1-0.5,0.3-0.7,0.4c-2.1,1.1-4.1,2.3-6,3.7c-1.1,0.9-2.2,1.8-3,3
	c-1.2,2-1.7,4.1-0.8,6.3C3,48.4,3.4,48.9,4,49.4c0.2,0.1,0.4,0.3,0.6,0.3c0.6,0.1,1.1,0.2,1.7,0.3H8c1.8-0.2,3.4-0.8,4.9-1.8
	c2.3-1.6,3.9-3.7,4.5-6.5c0.5-2,0.5-4-0.1-6c-0.1-0.2-0.1-0.4-0.2-0.5c-0.1-0.2-0.2-0.4-0.2-0.6l3.7-2.1l0.1,0
	c-0.1,0.2-0.1,0.4-0.2,0.7c-0.4,1.6-0.7,3.2-0.6,4.9c0.1,1.8,0.6,3.4,1.6,4.9c0.8,1.2,2.8,1.2,3.7,0c0.3-0.4,0.6-0.9,0.8-1.3
	c0.6-1.2,1.2-2.5,1.7-3.7l0.1-0.2c0,0.6-0.1,1.1-0.1,1.6c0,0.8,0,1.6,0.3,2.4c0.2,0.7,0.6,1.2,1.4,1.2c0.5,0.1,0.9-0.2,1.3-0.5
	c0.6-0.5,1.1-1,1.4-1.7c1-1.9,2.1-3.7,3-5.6c1-2.1,1.9-4.2,2.8-6.3c0.1-0.1,0.1-0.2,0.2-0.4c0.2,0.9,0.4,1.7,0.7,2.5
	c0.3,0.9,0.7,1.8,1.2,2.7c0.2,0.4,0.2,0.7-0.1,1c-1.2,1.5-2.4,2.9-3.6,4.4c-0.3,0.3-0.5,0.7-0.7,1c-0.1,0.2-0.2,0.5-0.3,0.7
	c-0.1,0.5,0.2,1,0.7,1.1c0.5,0.1,1,0.1,1.4,0.1c1.6-0.1,3.2-0.7,4.5-1.7c1.7-1.3,2.3-3,1.9-5.1c-0.1-0.6-0.3-1.1-0.5-1.6
	c-0.1-0.2-0.1-0.4,0.1-0.6c1.4-2,2.6-4,3.6-6.2c0-0.1,0.1-0.2,0.2-0.3c0.4,1.8,0.9,3.6,1.8,5.2c-0.5,0.5-1,0.9-1.4,1.4
	c-1,1-1.8,2.2-2.2,3.5c-0.2,0.6-0.3,1.2-0.2,1.8c0.1,1,0.9,1.6,1.9,1.4c2.1-0.5,3.8-1.4,5.1-3.2c0.9-1.2,1-2.4,0.6-3.8
	c-0.1-0.4-0.2-0.7-0.3-1.2c0.5-0.2,1-0.3,1.5-0.5c2.7-0.6,5.3-0.5,7.9,0.5c1.5,0.6,2.7,1.5,3.4,3c0.9,1.8,0.4,3.5-1.3,4.7
	c-0.2,0.1-0.3,0.2-0.5,0.3c-0.1,0.1-0.1,0.2-0.1,0.4c0,0.1,0.2,0.1,0.3,0.1c0.6,0,1-0.3,1.4-0.6c1.1-0.8,1.8-1.8,2-3.1
	c0,0-0.1-0.1,0.1-0.1v-0.9C66.9,35.5,66.9,35.5,66.9,35.4L66.9,35.4z M14.9,39c-0.2,2.4-1.3,4.3-3,5.9c-1,0.9-2.1,1.5-3.5,1.7
	c-0.5,0.1-1,0.1-1.4-0.1c-0.7-0.3-0.8-0.9-0.8-1.5c0-1,0.3-1.9,0.8-2.8c0.6-1.1,1.5-2,2.5-2.8c1.5-1.3,3.2-2.3,5-3.3
	c0,0,0.1,0,0.1-0.1C14.8,37.1,14.9,38,14.9,39L14.9,39z M28.3,28.7c-0.1,0.8-0.3,1.5-0.5,2.3c-0.8,2.6-1.8,5-2.8,7.5
	c-0.2,0.5-0.5,0.9-0.7,1.3c0,0.1-0.1,0.1-0.2,0.2c-0.3,0.3-0.6,0.3-0.8-0.1c-0.2-0.5-0.3-1-0.4-1.5c-0.1-0.3,0-0.7-0.1-1
	c0-2.4,0.8-4.6,2-6.6c0.5-0.8,1.1-1.6,1.9-2.2c0.3-0.2,0.6-0.3,0.9-0.4C28.1,28,28.4,28.2,28.3,28.7L28.3,28.7z M37.5,40.4l3.3-3.8
	C40.9,37.9,38.5,40.8,37.5,40.4z M48,37.8c-0.2,0.1-0.5,0.2-0.7,0.4c-0.2,0.1-0.3,0-0.3-0.2c0-0.1,0-0.3,0-0.4
	c0.4-1.5,1.3-2.9,2.5-4c0,0,0,0,0.1,0C50.2,35.1,49.5,36.9,48,37.8L48,37.8z"/>
</svg>
