<?xml version="1.0" encoding="utf-8"?>
<!-- Generator: Adobe Illustrator 22.0.1, SVG Export Plug-In . SVG Version: 6.00 Build 0)  -->
<svg version="1.1" id="Layer_1" xmlns="http://www.w3.org/2000/svg" xmlns:xlink="http://www.w3.org/1999/xlink" x="0px" y="0px"
	 viewBox="0 0 500 150" style="enable-background:new 0 0 500 150;" xml:space="preserve">
<style type="text/css">
	.st0{fill:#6B7C93;}
</style>
<path class="st0" d="M322.2,86.1c-7,0-13.1,1.7-18.1,4.2c-1.9-3.7-3.8-7-4.1-9.4c-0.4-2.8-0.8-4.5-0.4-7.9c0.4-3.4,2.4-8.1,2.4-8.5
	c0-0.4-0.4-2.1-4.5-2.1c-4,0-7.5,0.8-7.9,1.8c-0.4,1.1-1.2,3.5-1.7,6c-0.7,3.7-8.1,16.7-12.2,23.5c-1.4-2.7-2.5-5-2.8-6.9
	c-0.4-2.8-0.8-4.5-0.4-7.9c0.4-3.4,2.4-8.1,2.4-8.5c0-0.4-0.4-2.1-4.5-2.1c-4,0-7.5,0.8-7.9,1.8c-0.4,1.1-0.8,3.6-1.7,6
	c-0.8,2.4-10.6,24.2-13.1,29.8c-1.3,2.9-2.4,5.2-3.2,6.8c-0.8,1.6,0,0.1-0.1,0.3c-0.7,1.3-1.1,2.1-1.1,2.1v0c-0.5,1-1.1,1.9-1.4,1.9
	c-0.2,0-0.6-2.6,0.1-6.2c1.4-7.5,5-19.3,4.9-19.7c0-0.2,0.7-2.3-2.3-3.3c-2.9-1.1-3.9,0.7-4.1,0.7c-0.2,0-0.4,0.6-0.4,0.6
	s3.2-13.3-6.1-13.3c-5.8,0-13.8,6.3-17.7,12c-2.5,1.4-7.8,4.3-13.4,7.3c-2.1,1.2-4.4,2.4-6.5,3.6l-0.4-0.5
	c-11.2-11.9-31.9-20.4-31-36.4c0.3-5.8,2.3-21.2,39.7-39.8c30.6-15.2,55.1-11.1,59.4-1.8c6.1,13.3-13.1,38-44.9,41.6
	c-12.1,1.4-18.5-3.3-20.1-5.1c-1.7-1.8-1.9-1.9-2.5-1.6c-1,0.5-0.4,2.2,0,3.2c0.9,2.5,4.8,6.8,11.5,9c5.8,1.9,20.1,3,37.3-3.7
	c19.3-7.5,34.3-28.2,29.9-45.5c-4.5-17.6-33.7-23.4-61.4-13.6c-16.5,5.9-34.3,15-47.1,27c-15.2,14.2-17.7,26.7-16.7,31.8
	c3.6,18.4,28.9,30.4,39.1,39.3c-0.5,0.3-1,0.5-1.4,0.8c-5.1,2.5-24.4,12.6-29.3,23.3c-5.5,12.1,0.9,20.8,5.1,22
	c13.1,3.6,26.4-2.9,33.7-13.6c7.2-10.7,6.3-24.7,3-31.1l-0.1-0.2l4-2.3c2.6-1.5,5.1-2.9,7.3-4.1c-1.3,3.4-2.1,7.4-2.6,13.3
	c-0.5,6.9,2.3,15.8,6,19.3c1.6,1.5,3.6,1.6,4.8,1.6c4.3,0,6.3-3.6,8.4-7.8c2.7-5.2,5-11.2,5-11.2s-2.9,16.3,5.1,16.3
	c2.9,0,5.9-3.8,7.2-5.7v0c0,0,0.1-0.1,0.2-0.4c0.2-0.2,0.3-0.5,0.5-0.7v-0.1c1.2-2,3.8-6.7,7.7-14.4c5-9.9,9.9-22.4,9.9-22.4
	s0.5,3,1.9,8.1c0.9,3,2.7,6.2,4.2,9.4c-1.2,1.6-1.9,2.6-1.9,2.6l0,0c-0.9,1.3-2,2.6-3.1,3.9c-4,4.8-8.8,10.2-9.4,11.8
	c-0.7,1.8-0.6,3.2,0.9,4.3c1.1,0.8,2.9,0.9,4.9,0.8c3.6-0.2,6.1-1.1,7.3-1.7c2-0.7,4.2-1.8,6.3-3.3c3.9-2.9,6.3-7,6.1-12.5
	c-0.1-3-1.1-6-2.3-8.8c0.4-0.5,0.7-1,1.1-1.6c6.2-9,10.9-19,10.9-19s0.5,3,1.9,8.1c0.7,2.5,2.2,5.3,3.6,8.1
	c-5.8,4.7-9.4,10.2-10.7,13.8c-2.3,6.6-0.5,9.7,2.9,10.4c1.5,0.3,3.7-0.4,5.4-1.1c2-0.7,4.5-1.8,6.8-3.5c3.9-2.9,7.7-6.9,7.5-12.4
	c-0.1-2.5-0.8-5-1.7-7.3c4.9-2,11.3-3.2,19.4-2.2c17.4,2,20.8,12.9,20.2,17.4c-0.7,4.5-4.3,7-5.5,7.8c-1.2,0.7-1.6,1-1.5,1.6
	c0.2,0.8,0.7,0.8,1.8,0.6c1.4-0.2,9.1-3.7,9.5-12.1C350.5,97.7,340.3,86,322.2,86.1L322.2,86.1z M188.1,131.4
	c-5.7,6.3-13.8,8.7-17.3,6.6c-3.7-2.1-2.3-11.4,4.8-18.1c4.3-4.1,9.9-7.8,13.6-10.1c0.8-0.5,2.1-1.3,3.6-2.1
	c0.2-0.2,0.4-0.2,0.4-0.2c0.3-0.2,0.6-0.4,0.9-0.5C196.6,116.4,194.1,124.8,188.1,131.4L188.1,131.4z M230.1,102.8
	c-2,4.9-6.2,17.4-8.8,16.7c-2.2-0.6-3.5-10.1-0.4-19.5c1.6-4.7,4.9-10.4,6.8-12.5c3.2-3.5,6.6-4.7,7.5-3.2
	C236.2,86.1,231.3,99.7,230.1,102.8z M264.8,119.4c-0.9,0.4-1.6,0.7-2,0.5c-0.3-0.2,0.4-0.7,0.4-0.7s4.3-4.7,6.1-6.8
	c1-1.3,2.1-2.7,3.4-4.3v0.5C272.6,114.1,267.2,117.8,264.8,119.4L264.8,119.4z M291.5,113.3c-0.6-0.5-0.5-1.9,1.6-6.4
	c0.8-1.8,2.7-4.8,5.9-7.7c0.4,1.2,0.6,2.3,0.6,3.4C299.5,109.5,294.5,112.2,291.5,113.3z"/>
</svg>
