<?xml version="1.0" encoding="utf-8"?>
<!-- Generator: Adobe Illustrator 22.0.1, SVG Export Plug-In . SVG Version: 6.00 Build 0)  -->
<svg version="1.1" id="Layer_1" xmlns="http://www.w3.org/2000/svg" xmlns:xlink="http://www.w3.org/1999/xlink" x="0px" y="0px"
	 viewBox="0 0 246.2 70.3" style="enable-background:new 0 0 246.2 70.3;" xml:space="preserve">
<style type="text/css">
	.st0{fill:#6B7C93;}
</style>
<path class="st0" d="M85.1,39.1C83,38,81.9,37,81.9,35.7c0-1.7,1.5-2.8,3.9-2.8c1.8,0,3.6,0.4,5.2,1.2l1.9-5.9c0,0-1.8-1.4-7-1.4
	c-7.3,0-12.3,4.2-12.3,10c0,3.3,2.4,5.9,5.5,7.7c2.5,1.4,3.4,2.5,3.4,4s-1.3,2.9-3.7,2.9c-2.4-0.1-4.7-0.7-6.8-1.8l-2,5.9
	c2.5,1.4,5.3,2.1,8.2,2c7.5,0,12.8-3.7,12.8-10.3C91.1,43.5,88.3,41,85.1,39.1z M193.8,14.7c-2.6,0-4.8,2.1-4.8,4.8c0,0,0,0.1,0,0.1
	c0,2.5,1.5,4.2,3.9,4.2h0.1c2.6,0.1,4.8-1.9,4.9-4.5c0-0.1,0-0.2,0-0.3c0.2-2.2-1.5-4-3.6-4.2C194.1,14.7,194,14.7,193.8,14.7z
	 M173.3,26.7c-5.6,0-8.8,5-8.8,5h-0.1l0.5-4.5h-7.4c-0.4,3-1,7.6-1.7,11.1L150,68.9h8.3l2.3-12.3h0.2c1.5,0.8,3.2,1.2,4.9,1.1
	c9.8,0,16.2-10,16.2-20.2C181.9,31.7,179.4,26.7,173.3,26.7z M165.3,51.3c-1.2,0-2.5-0.4-3.4-1.2l1.4-7.8c1-5.2,3.7-8.7,6.6-8.7
	c2.5,0,3.3,2.4,3.3,4.6C173.2,43.5,170,51.3,165.3,51.3z M115,26.7c-3.4,0.1-6.7,1.7-8.8,4.4l-0.1-0.1l3.2-16.8h-8.3l-8.1,42.7h8.4
	l2.8-14.6c1.1-5.5,3.9-8.9,6.6-8.9c1.9,0,2.6,1.3,2.6,3.1c0,1.2-0.1,2.5-0.4,3.7L109.6,57h8.3l3.2-17.2c0.4-1.8,0.6-3.6,0.6-5.5
	C121.8,29.5,119.3,26.7,115,26.7z M140.6,26.7c-10,0-16.7,9-16.7,19.1c0,6.5,4,11.7,11.5,11.7c9.9,0,16.5-8.8,16.5-19.1
	C151.9,32.4,148.5,26.7,140.6,26.7z M136.6,51.1c-2.9,0-4-2.4-4-5.5c0-4.8,2.5-12.6,7-12.6c3,0,3.9,2.5,3.9,5
	C143.4,43.3,141,51.1,136.6,51.1z M182.1,56.9h8.4l5.7-29.6h-8.4L182.1,56.9L182.1,56.9z M217.4,27.3h-5.8l0.3-1.4
	c0.5-2.9,2.1-5.4,5-5.4c0.9,0,1.8,0.2,2.6,0.5l1.7-6.5c-1.4-0.6-3-0.8-4.5-0.7c-3-0.1-5.9,0.9-8.2,2.8c-2.9,2.4-4.2,5.9-4.9,9.4
	l-0.3,1.4h-3.9l-1.2,6.3h3.9l-4.4,23.3h8.3l4.4-23.3h5.7L217.4,27.3z M237.4,27.4c0,0-5.2,13.1-7.6,20.3h-0.1
	c-0.2-2.3-2-20.3-2-20.3H219l5,27.1c0.1,0.5,0.1,1-0.2,1.4c-1.1,2-2.6,3.7-4.5,5c-1.4,1-3,1.8-4.7,2.4l2.3,7.1
	c3.1-0.8,5.9-2.4,8.2-4.5c3.8-3.6,7.3-9,10.9-16.5l10.2-21.9H237.4z M52.2,12.9c-0.3,0-5.5-0.4-5.5-0.4s-3.6-3.6-4.1-4
	c-0.1-0.1-0.2-0.2-0.3-0.2l-2.6,60.3l20.6-4.5l-7.5-50.7C52.8,13.1,52.5,12.9,52.2,12.9z M41.2,8.2c-0.1,0-0.8,0.2-2,0.6
	C38,5.2,35.8,2,32,2h-0.3c-0.8-1.2-2.2-1.9-3.6-2C19.2,0,15,11.1,13.7,16.7c-3.4,1-5.9,1.8-6.2,1.9c-1.9,0.6-2,0.7-2.2,2.5
	C5,22.5,0,61.3,0,61.3l38.8,7.3l2.7-60.5C41.4,8.1,41.3,8.2,41.2,8.2z M31.3,10.8v0.4l-6.8,2.1c1.3-5.1,3.8-7.5,6-8.5
	C31.1,6.7,31.4,8.8,31.3,10.8z M27.8,2.4c0.4,0,0.8,0.1,1.1,0.4c-2.8,1.3-5.9,4.7-7.2,11.4c-1.9,0.6-3.7,1.2-5.4,1.7
	C17.9,10.7,21.5,2.4,27.8,2.4z M29.3,32.4c-1.6-0.8-3.3-1.2-5.1-1.2c-4.1,0-4.3,2.6-4.3,3.2c0,3.5,9.2,4.8,9.2,13.2
	c0,6.6-4.1,10.8-9.8,10.8c-3.8,0.1-7.5-1.4-10.1-4.2l1.8-6c0,0,3.5,3,6.5,3c1.5,0.1,2.7-1.1,2.8-2.6c0,0,0-0.1,0-0.1
	c0-4.6-7.6-4.8-7.6-12.5c0-6.4,4.6-12.6,13.9-12.6c1.8-0.1,3.7,0.2,5.3,1L29.3,32.4z M33.6,10.5V9.8c0-1.8-0.2-3.6-0.8-5.4
	c2,0.2,3.2,2.5,4.1,5C36,9.8,34.9,10.1,33.6,10.5L33.6,10.5z"/>
</svg>
