<?xml version="1.0" encoding="utf-8"?>
<!-- Generator: Adobe Illustrator 22.0.1, SVG Export Plug-In . SVG Version: 6.00 Build 0)  -->
<svg version="1.1" id="Layer_1" xmlns="http://www.w3.org/2000/svg" xmlns:xlink="http://www.w3.org/1999/xlink" x="0px" y="0px"
	 viewBox="0 0 500 150" style="enable-background:new 0 0 500 150;" xml:space="preserve">
<style type="text/css">
	.st0{fill:#6B7C93;}
</style>
<path class="st0" d="M173.2,82.5c-4.2-2.2-6.4-4.2-6.4-6.8c0-3.4,3-5.6,7.8-5.6c3.6,0,7.2,0.8,10.4,2.4l3.8-11.8c0,0-3.6-2.8-14-2.8
	c-14.6,0-24.6,8.4-24.6,20c0,6.6,4.8,11.8,11,15.4c5,2.8,6.8,5,6.8,8c0,3-2.6,5.8-7.4,5.8c-4.8-0.2-9.4-1.4-13.6-3.6l-4,11.8
	c5,2.8,10.6,4.2,16.4,4c15,0,25.6-7.4,25.6-20.6C185.2,91.3,179.6,86.3,173.2,82.5z M390.9,33.6c-5.2,0-9.6,4.2-9.6,9.6v0.2
	c0,5,3,8.4,7.8,8.4h0.2c5.2,0.2,9.6-3.8,9.8-9c0-0.2,0-0.4,0-0.6c0.4-4.4-3-8-7.2-8.4C391.5,33.6,391.3,33.6,390.9,33.6z
	 M349.9,57.7c-11.2,0-17.6,10-17.6,10h-0.2l1-9h-14.8c-0.8,6-2,15.2-3.4,22.2l-11.6,61.3h16.6l4.6-24.6h0.4c3,1.6,6.4,2.4,9.8,2.2
	c19.6,0,32.4-20,32.4-40.5C367.1,67.7,362.1,57.7,349.9,57.7z M333.9,107c-2.4,0-5-0.8-6.8-2.4l2.8-15.6c2-10.4,7.4-17.4,13.2-17.4
	c5,0,6.6,4.8,6.6,9.2C349.7,91.3,343.3,107,333.9,107z M233.1,57.7c-6.8,0.2-13.4,3.4-17.6,8.8l-0.2-0.2l6.4-33.6h-16.6l-16.2,85.5
	h16.8l5.6-29.2c2.2-11,7.8-17.8,13.2-17.8c3.8,0,5.2,2.6,5.2,6.2c0,2.4-0.2,5-0.8,7.4l-6.6,33.6h16.6l6.4-34.5
	c0.8-3.6,1.2-7.2,1.2-11C246.7,63.3,241.7,57.7,233.1,57.7z M284.4,57.7c-20,0-33.4,18-33.4,38.3c0,13,8,23.4,23,23.4
	c19.8,0,33-17.6,33-38.3C307,69.1,300.2,57.7,284.4,57.7z M276.4,106.6c-5.8,0-8-4.8-8-11c0-9.6,5-25.2,14-25.2c6,0,7.8,5,7.8,10
	C290,90.9,285.2,106.6,276.4,106.6z M367.5,118.2h16.8l11.4-59.3h-16.8L367.5,118.2L367.5,118.2z M438.2,58.9h-11.6l0.6-2.8
	c1-5.8,4.2-10.8,10-10.8c1.8,0,3.6,0.4,5.2,1l3.4-13c-2.8-1.2-6-1.6-9-1.4c-6-0.2-11.8,1.8-16.4,5.6c-5.8,4.8-8.4,11.8-9.8,18.8
	l-0.6,2.8h-7.8l-2.4,12.6h7.8l-8.8,46.7h16.6l8.8-46.7h11.4L438.2,58.9z M478.3,59.1c0,0-10.4,26.2-15.2,40.7h-0.2
	c-0.4-4.6-4-40.7-4-40.7h-17.4l10,54.3c0.2,1,0.2,2-0.4,2.8c-2.2,4-5.2,7.4-9,10c-2.8,2-6,3.6-9.4,4.8l4.6,14.2
	c6.2-1.6,11.8-4.8,16.4-9c7.6-7.2,14.6-18,21.8-33l20.4-43.9h-17.6V59.1z M107.3,30c-0.6,0-11-0.8-11-0.8s-7.2-7.2-8.2-8
	c-0.2-0.2-0.4-0.4-0.6-0.4l-5.2,120.8l41.3-9L108.5,31C108.5,30.4,107.9,30,107.3,30z M85.3,20.6c-0.2,0-1.6,0.4-4,1.2
	c-2.4-7.2-6.8-13.6-14.4-13.6h-0.6c-1.6-2.4-4.4-3.8-7.2-4c-17.8,0-26.2,22.2-28.8,33.4c-6.8,2-11.8,3.6-12.4,3.8
	c-3.8,1.2-4,1.4-4.4,5C12.8,49.3,2.8,127,2.8,127l77.7,14.6l5.4-121.2C85.7,20.4,85.5,20.6,85.3,20.6z M65.5,25.8v0.8l-13.6,4.2
	c2.6-10.2,7.6-15,12-17C65.1,17.6,65.7,21.8,65.5,25.8z M58.5,9c0.8,0,1.6,0.2,2.2,0.8c-5.6,2.6-11.8,9.4-14.4,22.8
	c-3.8,1.2-7.4,2.4-10.8,3.4C38.6,25.6,45.8,9,58.5,9z M61.5,69.1c-3.2-1.6-6.6-2.4-10.2-2.4c-8.2,0-8.6,5.2-8.6,6.4
	c0,7,18.4,9.6,18.4,26.4c0,13.2-8.2,21.6-19.6,21.6c-7.6,0.2-15-2.8-20.2-8.4l3.6-12c0,0,7,6,13,6c3,0.2,5.4-2.2,5.6-5.2v-0.2
	c0-9.2-15.2-9.6-15.2-25c0-12.8,9.2-25.2,27.8-25.2c3.6-0.2,7.4,0.4,10.6,2L61.5,69.1z M70.1,25.2v-1.4c0-3.6-0.4-7.2-1.6-10.8
	c4,0.4,6.4,5,8.2,10C74.9,23.8,72.7,24.4,70.1,25.2L70.1,25.2z"/>
</svg>
