<?xml version="1.0" encoding="utf-8"?>
<!-- Generator: Adobe Illustrator 22.0.1, SVG Export Plug-In . SVG Version: 6.00 Build 0)  -->
<svg version="1.1" id="Layer_1" xmlns="http://www.w3.org/2000/svg" xmlns:xlink="http://www.w3.org/1999/xlink" x="0px" y="0px"
	 viewBox="0 0 500 150" style="enable-background:new 0 0 500 150;" xml:space="preserve">
<style type="text/css">
	.st0{fill:#6B7C93;}
</style>
<path class="st0" d="M289.8,63h-19.6v2.1c6.1,0,7.1,1.3,7.1,9.1v14c0,7.8-1,9.2-7.1,9.2c-4.7-0.7-7.9-3.2-12.3-8l-5-5.5
	c6.8-1.2,10.4-5.5,10.4-10.3c0-6-5.1-10.6-14.8-10.6h-19.3v2.1c6.1,0,7.1,1.3,7.1,9.1v14c0,7.8-1,9.2-7.1,9.2v2.1h21.8v-2.1
	c-6.1,0-7.1-1.4-7.1-9.2v-3.9h1.9L258,99.5h31.9c15.7,0,22.5-8.3,22.5-18.3C312.3,71.2,305.5,63,289.8,63L289.8,63z M243.9,80.8
	V66.3h4.5c4.9,0,7.1,3.4,7.1,7.3c0,3.8-2.2,7.2-7.1,7.2L243.9,80.8z M290.2,96.1h-0.8c-3.9,0-4.5-1-4.5-6V66.3h5.3
	c11.4,0,13.5,8.3,13.5,14.8C303.6,87.7,301.6,96.1,290.2,96.1z M168.3,84.9l7.6-22.3c2.2-6.5,1.2-8.3-5.8-8.3V52h20.6v2.2
	c-6.9,0-8.5,1.6-11.3,9.6l-12.5,37.5h-1.4L154.2,67l-11.4,34.3h-1.4l-12.2-37.5c-2.6-8-4.4-9.6-10.7-9.6V52h24.3v2.2
	c-6.5,0-8.2,1.5-5.9,8.3l7.3,22.3L155.3,52h2.1L168.3,84.9L168.3,84.9z M205.5,100.9c-12,0-21.9-8.9-21.9-19.7
	c0-10.7,9.9-19.6,21.9-19.6c12,0,21.9,8.9,21.9,19.6C227.4,92,217.5,100.9,205.5,100.9z M205.5,64.9c-10.1,0-13.6,9.1-13.6,16.2
	c0,7.2,3.5,16.2,13.6,16.2c10.2,0,13.7-9,13.7-16.2C219.2,74,215.7,64.9,205.5,64.9z"/>
<path class="st0" d="M339.3,97.3v2.2h-25.1v-2.2c7.3,0,8.7-1.9,8.7-12.8V66.9c0-11-1.3-12.7-8.7-12.7V52h22.7
	c11.3,0,17.5,5.8,17.5,13.6c0,7.6-6.2,13.5-17.5,13.5h-6.2v5.4C330.7,95.4,332,97.3,339.3,97.3L339.3,97.3z M336.9,56h-6.2V75h6.2
	c6.1,0,9-4.3,9-9.4C345.9,60.3,343.1,56,336.9,56z M429.7,89.2l-0.5,2c-1,3.6-2.2,4.9-10,4.9h-1.5c-5.7,0-6.7-1.3-6.7-9.1v-5
	c8.5,0,9.2,0.8,9.2,6.5h2.1V72.1h-2.1c0,5.7-0.7,6.5-9.2,6.5V66.3h6c7.8,0,9,1.3,10,4.9l0.5,2.1h1.8L428.5,63h-32.2v2.1
	c6.1,0,7.1,1.3,7.1,9.1v14c0,7.1-0.8,8.9-5.7,9.2c-4.6-0.7-7.8-3.2-12.1-8l-5-5.5c6.8-1.2,10.4-5.5,10.4-10.3
	c0-6-5.1-10.6-14.8-10.6H357v2.1c6.1,0,7.1,1.3,7.1,9.1v14c0,7.8-1,9.2-7.1,9.2v2.1h21.8v-2.1c-6.1,0-7.1-1.4-7.1-9.2v-3.9h1.9
	l12.2,15.2h45l0.7-10.3L429.7,89.2L429.7,89.2z M371.7,80.8V66.3h4.5c4.9,0,7.1,3.4,7.1,7.3c0,3.8-2.2,7.2-7.1,7.2L371.7,80.8z
	 M452,100.9c-4.4,0-8.2-2.3-9.9-3.7c-0.5,0.5-1.5,2.2-1.8,3.7h-2.1V85.8h2.2c0.9,7.2,5.9,11.5,12.4,11.5c3.5,0,6.4-2,6.4-5.3
	c0-2.8-2.5-5-7-7.1l-6.2-3c-4.4-2.1-7.7-5.7-7.7-10.5c0-5.3,4.9-9.7,11.7-9.7c3.6,0,6.7,1.3,8.5,2.8c0.5-0.4,1.1-1.6,1.4-3h2.1v12.9
	h-2.3c-0.8-5.1-3.6-9.4-9.4-9.4c-3.1,0-5.9,1.8-5.9,4.5c0,2.8,2.3,4.4,7.6,6.8l6,3c5.3,2.5,7.3,6.6,7.3,9.9
	C465.3,96.1,459.3,100.9,452,100.9L452,100.9z M485.7,100.9c-4.4,0-8.2-2.3-9.9-3.7c-0.5,0.5-1.5,2.2-1.8,3.7H472V85.8h2.2
	c0.9,7.2,5.9,11.5,12.4,11.5c3.5,0,6.4-2,6.4-5.3c0-2.8-2.5-5-7-7.1l-6.2-3c-4.4-2.1-7.7-5.7-7.7-10.5c0-5.3,4.9-9.7,11.7-9.7
	c3.6,0,6.7,1.3,8.5,2.8c0.5-0.4,1.1-1.6,1.4-3h2.1v12.9h-2.3c-0.8-5.1-3.6-9.4-9.4-9.4c-3.1,0-5.9,1.8-5.9,4.5
	c0,2.8,2.3,4.4,7.6,6.8l6,3c5.3,2.5,7.3,6.6,7.3,9.9C499,96.1,493,100.9,485.7,100.9L485.7,100.9z"/>
<g>
	<path class="st0" d="M9,75c0,19.2,11.2,35.8,27.3,43.6L13.2,55.3C10.4,61.5,9,68.2,9,75z M90.2,72.6c0-6-2.2-10.1-4-13.4
		c-2.5-4-4.8-7.4-4.8-11.4c0-4.5,3.4-8.6,8.1-8.6c0.2,0,0.4,0,0.6,0c-8.6-7.9-20.1-12.7-32.7-12.7c-16.9,0-31.8,8.7-40.5,21.8
		c1.1,0,2.2,0.1,3.1,0.1c5.1,0,12.9-0.6,12.9-0.6c2.6-0.2,2.9,3.7,0.3,4c0,0-2.6,0.3-5.5,0.5l17.7,52.5L56,73l-7.6-20.7
		c-2.6-0.2-5.1-0.5-5.1-0.5c-2.6-0.2-2.3-4.1,0.3-4c0,0,8,0.6,12.8,0.6c5.1,0,12.9-0.6,12.9-0.6c2.6-0.2,2.9,3.7,0.3,4
		c0,0-2.6,0.3-5.5,0.5l17.5,52.1l4.8-16.2C88.6,81.5,90.2,76.7,90.2,72.6z"/>
	<path class="st0" d="M58.3,79.2l-14.5,42.3c4.4,1.3,9.1,2,13.7,2c5.5,0,10.9-0.9,16.1-2.7c-0.1-0.2-0.2-0.4-0.3-0.7L58.3,79.2z
		 M100,51.7c0.2,1.5,0.3,3.2,0.3,5c0,4.9-0.9,10.4-3.7,17.4l-14.8,42.8c14.4-8.4,24.1-24,24.1-41.9C105.9,66.9,103.9,58.9,100,51.7z
		"/>
	<path class="st0" d="M57.5,18.5C26.3,18.5,0.9,43.8,0.9,75c0,31.2,25.4,56.5,56.5,56.5c31.2,0,56.5-25.3,56.5-56.5
		C114,43.8,88.6,18.5,57.5,18.5z M57.5,128.9c-29.7,0-53.9-24.2-53.9-53.9c0-29.7,24.2-53.9,53.9-53.9c29.7,0,53.9,24.2,53.9,53.9
		C111.4,104.7,87.2,128.9,57.5,128.9z"/>
</g>
</svg>
